<svg width="1728" height="1836" viewBox="0 0 1728 1836" fill="none" xmlns="http://www.w3.org/2000/svg">
<g filter="url(#filter0_f_4_183)">
<path fill-rule="evenodd" clip-rule="evenodd" d="M-29.7491 682C284.291 682 576 888.801 576 1191.08C576 1502.74 294.042 1736 -29.7491 1736C-286.695 1736 -365 1438.4 -365 1191.08C-365 955.694 -274.293 682 -29.7491 682Z" fill="url(#paint0_linear_4_183)" fill-opacity="0.5"/>
</g>
<g filter="url(#filter1_f_4_183)">
<path fill-rule="evenodd" clip-rule="evenodd" d="M1815.45 943C1453.35 943 1117 713.831 1117 378.863C1117 33.4926 1442.11 -225 1815.45 -225C2111.71 -225 2202 104.793 2202 378.863C2202 639.704 2097.41 943 1815.45 943Z" fill="url(#paint1_linear_4_183)" fill-opacity="0.4"/>
</g>
<defs>
<filter id="filter0_f_4_183" x="-465" y="582" width="1141" height="1254" filterUnits="userSpaceOnUse" color-interpolation-filters="sRGB">
<feFlood flood-opacity="0" result="BackgroundImageFix"/>
<feBlend mode="normal" in="SourceGraphic" in2="BackgroundImageFix" result="shape"/>
<feGaussianBlur stdDeviation="50" result="effect1_foregroundBlur_4_183"/>
</filter>
<filter id="filter1_f_4_183" x="1017" y="-325" width="1285" height="1368" filterUnits="userSpaceOnUse" color-interpolation-filters="sRGB">
<feFlood flood-opacity="0" result="BackgroundImageFix"/>
<feBlend mode="normal" in="SourceGraphic" in2="BackgroundImageFix" result="shape"/>
<feGaussianBlur stdDeviation="50" result="effect1_foregroundBlur_4_183"/>
</filter>
<linearGradient id="paint0_linear_4_183" x1="576.517" y1="682" x2="-208.982" y2="1764.49" gradientUnits="userSpaceOnUse">
<stop offset="0.234375" stop-color="#73ABFF"/>
<stop offset="0.479167" stop-color="#0066FF"/>
<stop offset="1" stop-color="#000D26"/>
</linearGradient>
<linearGradient id="paint1_linear_4_183" x1="1116.4" y1="943" x2="1975.61" y2="-288.998" gradientUnits="userSpaceOnUse">
<stop offset="0.234375" stop-color="#73ABFF"/>
<stop offset="0.479167" stop-color="#0066FF"/>
<stop offset="1" stop-color="#000D26"/>
</linearGradient>
</defs>
</svg>
