<svg width="282" height="96" viewBox="0 0 282 96" fill="none" xmlns="http://www.w3.org/2000/svg">
<path d="M20.2404 53.959C20.2404 46.3469 19.9705 45.1218 19.8437 42.7946C21.9649 42.8561 25.341 42.9816 27.4946 42.9816C30.2095 42.9816 31.4698 42.7612 36.5029 42.7612C48.2261 42.7612 54.9837 47.103 54.9837 54.0846C54.9837 61.0662 48.2369 65.4413 36.5029 65.4413C31.2701 65.4413 30.0772 65.2516 27.8265 65.2516C25.5758 65.2516 22.0971 65.3772 19.8437 65.4413C20.0407 63.1141 20.2404 60.1256 20.2404 53.959ZM46.2075 54.0846C46.2075 48.5485 42.5966 46.0342 36.4921 46.0342C33.8419 46.0342 30.8248 46.0957 28.18 46.252C28.1476 48.2358 28.1476 50.0966 28.1476 53.959C28.1476 57.4498 28.1476 59.7796 28.2448 61.9479C30.8302 62.0735 33.877 62.2042 36.4921 62.2042C42.5939 62.2016 46.2048 59.6207 46.2048 54.0795L46.2075 54.0846Z" fill="#DAE1EB"/>
<path d="M85.8463 43.0406C86.7561 43.0515 87.6653 42.9889 88.5639 42.8535C87.9351 46.4417 87.9351 50.0863 87.9351 53.7027C87.9351 62.2913 81.1451 66.2614 72.9653 66.2614C65.3144 66.2614 57.6636 63.5241 57.6636 53.7027C57.6636 50.0863 57.6636 46.4391 56.9673 42.8535C58.1277 42.979 59.9818 43.0406 61.8034 43.0406C63.625 43.0406 65.4467 42.979 66.6395 42.8535C65.9756 46.4417 65.9756 50.117 65.9756 53.7027C65.9756 60.3101 70.2153 62.8577 74.4874 62.8577C79.2911 62.8577 83.9329 60.2768 83.9329 53.7027C83.9329 50.0863 83.9329 46.4391 83.269 42.8535C84.1199 42.993 84.9829 43.0557 85.8463 43.0406Z" fill="#DAE1EB"/>
<path d="M106.945 66.2538C103.566 62.1965 100.023 58.6416 96.6897 54.6151C95.8261 57.3217 95.1973 59.9975 93.8075 65.531C92.9429 65.3916 92.0666 65.3281 91.1897 65.3413C90.3137 65.3267 89.4382 65.3902 88.5747 65.531C91.1574 57.7292 93.7724 49.9607 95.926 42.1282H96.3902C100.695 47.5105 105.266 52.5084 109.571 57.6677C114.066 52.754 118.213 47.5628 121.985 42.1282H122.484C124.802 49.9607 127.417 58.0188 130.1 65.531C128.582 65.3807 127.057 65.3173 125.531 65.3413C123.982 65.3186 122.433 65.3819 120.892 65.531C119.734 60.4665 118.441 56.9757 117.78 53.9975C114.369 58.2136 110.89 61.8915 107.414 66.264L106.945 66.2538Z" fill="#DAE1EB"/>
<path d="M206.811 55.8428L200.785 60.3409C200.917 62.6476 201.082 64.2084 201.249 65.5309C199.757 65.4669 198.135 65.3413 196.645 65.3413C195.155 65.3413 193.531 65.4669 192.041 65.5309C192.311 63.2242 192.67 60.2153 192.67 54.0487C192.67 46.4391 192.338 45.1166 192.041 42.8535C193.531 42.915 195.155 43.0406 196.645 43.0406C198.135 43.0406 199.757 42.915 201.249 42.8535C200.949 45.1166 200.617 46.4417 200.617 54.0487C200.617 54.9611 200.617 55.7479 200.653 56.4092L218.005 42.8535C218.882 42.9866 219.768 43.0492 220.655 43.0406C221.62 43.0418 222.583 42.9793 223.538 42.8535L213.137 50.9039C219.498 61.63 220.647 65.1696 224.828 64.7441C225.47 64.68 226.042 63.683 226.914 62.5989L227.678 64.5878C226.285 65.3413 224.598 66.1589 220.523 66.1589C212.211 66.1589 210.819 62.1965 206.811 55.8428Z" fill="#DAE1EB"/>
<path d="M248.978 44.9295C253.715 52.7928 256.362 57.6676 262.159 65.5309C259.873 65.4054 258.483 65.3413 257.126 65.3413C255.768 65.3413 254.376 65.4054 252.125 65.5309C251.316 63.7368 250.468 61.9427 249.54 60.1845H233.642C232.484 62.1016 231.483 63.9573 230.73 65.5309C229.699 65.3868 228.657 65.3234 227.615 65.3413C226.574 65.3222 225.532 65.3857 224.501 65.5309C229.14 60.1204 235.895 50.6527 240.067 44.4887C239.374 43.7198 238.478 43.5455 236.289 43.325V42.8535C237.781 42.8535 239.9 43.0406 241.357 43.0406C242.815 43.0406 244.569 42.8535 245.465 42.8535C247.386 42.8535 248.182 43.0739 248.978 44.9295ZM241.962 47.3182C240.102 50.0555 237.757 53.5156 235.563 56.9756H247.818C246.064 53.8616 244.11 50.6834 241.956 47.3182H241.962Z" fill="#DAE1EB"/>
<path d="M150.106 44.9936C151.104 44.9936 151.914 44.2626 151.914 43.361C151.914 42.4593 151.104 41.7283 150.106 41.7283C149.107 41.7283 148.297 42.4593 148.297 43.361C148.297 44.2626 149.107 44.9936 150.106 44.9936Z" fill="#DAE1EB"/>
<path d="M148.842 45.9855C149.841 45.9855 150.651 45.2545 150.651 44.3529C150.651 43.4512 149.841 42.7202 148.842 42.7202C147.844 42.7202 147.034 43.4512 147.034 44.3529C147.034 45.2545 147.844 45.9855 148.842 45.9855Z" fill="#DAE1EB"/>
<path d="M152.367 44.1657C153.366 44.1657 154.175 43.4348 154.175 42.5331C154.175 41.6314 153.366 40.9005 152.367 40.9005C151.368 40.9005 150.559 41.6314 150.559 42.5331C150.559 43.4348 151.368 44.1657 152.367 44.1657Z" fill="#DAE1EB"/>
<path d="M155.39 44.3529C156.695 44.3529 157.754 43.3958 157.754 42.2153C157.754 41.0348 156.695 40.0778 155.39 40.0778C154.084 40.0778 153.026 41.0348 153.026 42.2153C153.026 43.3958 154.084 44.3529 155.39 44.3529Z" fill="#DAE1EB"/>
<path d="M157.478 45.4985C158.784 45.4985 159.842 44.5415 159.842 43.3609C159.842 42.1804 158.784 41.2234 157.478 41.2234C156.173 41.2234 155.114 42.1804 155.114 43.3609C155.114 44.5415 156.173 45.4985 157.478 45.4985Z" fill="#DAE1EB"/>
<path d="M160.12 44.8629C161.426 44.8629 162.485 43.9059 162.485 42.7253C162.485 41.5448 161.426 40.5878 160.12 40.5878C158.815 40.5878 157.756 41.5448 157.756 42.7253C157.756 43.9059 158.815 44.8629 160.12 44.8629Z" fill="#DAE1EB"/>
<path d="M162.209 45.7728C163.515 45.7728 164.573 44.8158 164.573 43.6352C164.573 42.4547 163.515 41.4977 162.209 41.4977C160.904 41.4977 159.845 42.4547 159.845 43.6352C159.845 44.8158 160.904 45.7728 162.209 45.7728Z" fill="#DAE1EB"/>
<path d="M158.134 43.361C159.44 43.361 160.498 42.404 160.498 41.2234C160.498 40.0429 159.44 39.0859 158.134 39.0859C156.829 39.0859 155.77 40.0429 155.77 41.2234C155.77 42.404 156.829 43.361 158.134 43.361Z" fill="#DAE1EB"/>
<path d="M162.209 42.792C163.594 42.792 164.716 41.7776 164.716 40.5263C164.716 39.2749 163.594 38.2606 162.209 38.2606C160.825 38.2606 159.702 39.2749 159.702 40.5263C159.702 41.7776 160.825 42.792 162.209 42.792Z" fill="#DAE1EB"/>
<path d="M164.573 44.6707C165.879 44.6707 166.937 43.7137 166.937 42.5331C166.937 41.3526 165.879 40.3956 164.573 40.3956C163.268 40.3956 162.209 41.3526 162.209 42.5331C162.209 43.7137 163.268 44.6707 164.573 44.6707Z" fill="#DAE1EB"/>
<path d="M166.179 43.7966C167.485 43.7966 168.543 42.8396 168.543 41.6591C168.543 40.4786 167.485 39.5215 166.179 39.5215C164.873 39.5215 163.815 40.4786 163.815 41.6591C163.815 42.8396 164.873 43.7966 166.179 43.7966Z" fill="#DAE1EB"/>
<path d="M167.191 45.7728C168.497 45.7728 169.555 44.8158 169.555 43.6352C169.555 42.4547 168.497 41.4977 167.191 41.4977C165.885 41.4977 164.827 42.4547 164.827 43.6352C164.827 44.8158 165.885 45.7728 167.191 45.7728Z" fill="#DAE1EB"/>
<path d="M169.393 45.1755C170.699 45.1755 171.757 44.2185 171.757 43.038C171.757 41.8575 170.699 40.9005 169.393 40.9005C168.088 40.9005 167.029 41.8575 167.029 43.038C167.029 44.2185 168.088 45.1755 169.393 45.1755Z" fill="#DAE1EB"/>
<path d="M170.014 46.4904C171.32 46.4904 172.378 45.5334 172.378 44.3528C172.378 43.1723 171.32 42.2153 170.014 42.2153C168.708 42.2153 167.65 43.1723 167.65 44.3528C167.65 45.5334 168.708 46.4904 170.014 46.4904Z" fill="#DAE1EB"/>
<path d="M171.76 45.7728C173.066 45.7728 174.124 44.8158 174.124 43.6352C174.124 42.4547 173.066 41.4977 171.76 41.4977C170.454 41.4977 169.396 42.4547 169.396 43.6352C169.396 44.8158 170.454 45.7728 171.76 45.7728Z" fill="#DAE1EB"/>
<path d="M173.903 46.8697C175.208 46.8697 176.267 45.9127 176.267 44.7322C176.267 43.5516 175.208 42.5946 173.903 42.5946C172.597 42.5946 171.539 43.5516 171.539 44.7322C171.539 45.9127 172.597 46.8697 173.903 46.8697Z" fill="#DAE1EB"/>
<path d="M184.177 58.839L177.7 48.8048C178.858 47.6284 180.142 45.2166 180.668 44.1606C180.696 44.1028 180.708 44.0392 180.702 43.9759C180.697 43.9126 180.674 43.8517 180.637 43.799C180.6 43.7463 180.549 43.7036 180.489 43.6749C180.429 43.6462 180.363 43.6326 180.296 43.6352H141.888C141.821 43.6326 141.755 43.6462 141.695 43.6749C141.635 43.7036 141.584 43.7463 141.547 43.799C141.51 43.8517 141.487 43.9126 141.482 43.9759C141.476 44.0392 141.488 44.1028 141.515 44.1606C142.055 45.2166 143.324 47.5899 144.484 48.774L137.959 58.839C137.853 58.9778 137.796 59.1446 137.796 59.3157C137.796 59.4868 137.853 59.6536 137.959 59.7924C139.203 61.5173 142.73 63.9163 153.778 65.9436C156.189 66.3958 158.64 66.6284 161.097 66.6382C163.556 66.6314 166.008 66.3788 168.411 65.8847C179.233 63.8035 182.954 61.5019 184.188 59.795C184.291 59.6543 184.345 59.4866 184.343 59.3153C184.341 59.144 184.283 58.9775 184.177 58.839Z" fill="#DAE1EB"/>
<path opacity="0.2" d="M184.177 58.839L177.7 48.8048C178.858 47.6284 180.142 45.2166 180.668 44.1606C180.696 44.1028 180.708 44.0392 180.702 43.9759C180.697 43.9126 180.674 43.8517 180.637 43.799C180.6 43.7463 180.549 43.7036 180.489 43.6749C180.429 43.6462 180.363 43.6326 180.296 43.6352H174.067C174.067 43.6352 173.368 45.7651 172.416 48.7612C172.416 48.7612 179.125 57.8317 178.823 59.2183C178.013 62.909 166.098 66.3127 166.562 66.2127C175.198 64.7826 182.182 62.5374 184.198 59.8052C184.304 59.663 184.359 59.4926 184.355 59.3187C184.351 59.1449 184.288 58.9768 184.177 58.839Z" fill="#DAE1EB"/>
<path d="M140.293 59.144C140.293 59.144 145.191 62.2017 150.049 63.1653C150.049 63.1653 146.991 62.0017 140.293 59.144Z" fill="#DAE1EB"/>
<path d="M153.827 72.6305C153.692 70.7313 152.928 69.2192 150.497 68.458C151.846 67.9992 153.023 67.4533 154.275 67.2149C156.164 66.8535 157.767 68.5451 157.489 70.1931C157.462 70.2713 157.407 70.3376 157.333 70.3802C156.356 71.0227 155.378 71.6626 154.399 72.2999C154.235 72.405 154.059 72.4947 153.827 72.6305Z" fill="#DAE1EB"/>
<path d="M171.814 68.4733C169.385 69.2422 168.651 70.7416 168.508 72.6766C167.275 71.8667 166.117 71.1106 164.967 70.3468C164.928 70.3148 164.896 70.2756 164.874 70.2315C164.851 70.1875 164.838 70.1395 164.835 70.0905C164.778 69.6084 164.866 69.1208 165.089 68.6843C165.312 68.2478 165.661 67.8805 166.095 67.6249C166.496 67.361 166.964 67.2023 167.45 67.1649C167.936 67.1276 168.424 67.2129 168.864 67.4122C169.785 67.7813 170.737 68.0888 171.814 68.4733Z" fill="#DAE1EB"/>
<path d="M157.916 73.402C157.754 72.3281 158.042 71.3772 159.141 70.7159C159.673 70.3883 160.286 70.1972 160.919 70.1612C161.552 70.1253 162.185 70.2458 162.754 70.5109C164.104 71.0952 164.538 72.1076 164.401 73.402H157.924H157.916Z" fill="#DAE1EB"/>
<path d="M153.182 73.0457C151.503 72.6305 149.871 72.2332 148.249 71.8103C148.1 71.7719 148.017 71.5694 147.906 71.4413C147.906 71.4259 147.906 71.4003 147.906 71.3823C147.814 70.17 148.378 69.214 149.347 68.9346C150.362 68.645 151.665 69.1423 152.461 70.1264C152.796 70.5349 153.034 71.0073 153.158 71.5112C153.283 72.0151 153.291 72.5386 153.182 73.0457Z" fill="#DAE1EB"/>
<path d="M169.123 73.0457C168.943 71.6822 169.291 70.5416 170.381 69.6087C171.088 69.0038 171.976 68.6655 172.988 68.9423C174.046 69.2345 174.337 70.0136 174.424 70.8415C174.51 71.6694 174.494 71.7078 173.463 71.9667L169.123 73.0457Z" fill="#DAE1EB"/>
<path d="M158.415 70.6391C158.685 68.4938 159.494 67.6378 161.159 67.6429C162.825 67.648 163.64 68.5169 163.88 70.6288C162.085 69.478 160.285 69.4831 158.415 70.6391Z" fill="#DAE1EB"/>
<path d="M159.986 22.598C159.349 23.2824 158.887 24.0973 158.636 24.9791C158.475 25.4531 158.431 25.9561 158.507 26.449C158.583 26.9418 158.778 27.4114 159.076 27.8214C159.637 28.5903 160.269 29.2772 160.822 30.0384C161.213 30.553 161.541 31.1075 161.802 31.6916C162.277 32.8167 162.387 33.4037 162.104 34.2546C161.921 34.8148 161.568 35.3114 161.089 35.6822C162.676 35.1952 164.279 33.1192 162.978 30.6151C162.653 30.0715 162.266 29.5628 161.826 29.0978C161.397 28.5852 160.911 28.1418 160.477 27.6318C159.567 26.5348 159.305 25.2507 159.64 23.8257C159.74 23.4207 159.869 23.0107 159.986 22.598Z" fill="#DAE1EB"/>
<path d="M161.923 27.0884C162.698 27.7369 163.607 28.4161 164.374 29.1388C164.745 29.5123 165.051 29.9397 165.28 30.405C165.996 31.7659 165.799 33.0859 165.011 34.3264C164.722 34.7749 164.374 35.1799 164.058 35.6079C166.457 34.2854 167.785 31.7326 165.853 29.3695C164.873 28.1675 163.273 27.4831 161.923 27.0884Z" fill="#DAE1EB"/>
<path d="M157.716 29.3054C159.243 31.4404 159.923 33.8958 158.015 35.695C158.922 35.5284 160.093 34.4135 160.145 33.3729C160.236 31.5583 158.973 30.3076 157.716 29.3054Z" fill="#DAE1EB"/>
</svg>
