<svg width="1728" height="996" viewBox="0 0 1728 996" fill="none" xmlns="http://www.w3.org/2000/svg">
<g clip-path="url(#clip0_9_246)">
<mask id="mask0_9_246" style="mask-type:alpha" maskUnits="userSpaceOnUse" x="0" y="0" width="1728" height="996">
<rect width="1728" height="996" fill="url(#paint0_radial_9_246)"/>
</mask>
<g mask="url(#mask0_9_246)">
<rect x="-4.5" y="0.5" width="79" height="79" stroke="white"/>
<rect x="74.5" y="0.5" width="79" height="79" stroke="white"/>
<rect x="153.5" y="0.5" width="79" height="79" stroke="white"/>
<rect x="232.5" y="0.5" width="79" height="79" stroke="white"/>
<rect x="311.5" y="0.5" width="79" height="79" fill="white" fill-opacity="0.2" stroke="white"/>
<rect x="390.5" y="0.5" width="79" height="79" stroke="white"/>
<rect x="469.5" y="0.5" width="79" height="79" stroke="white"/>
<rect x="-4.5" y="79.5" width="79" height="79" stroke="white"/>
<rect x="74.5" y="79.5" width="79" height="79" stroke="white"/>
<rect x="153.5" y="79.5" width="79" height="79" stroke="white"/>
<rect x="232.5" y="79.5" width="79" height="79" stroke="white"/>
<rect x="311.5" y="79.5" width="79" height="79" stroke="white"/>
<rect x="390.5" y="79.5" width="79" height="79" stroke="white"/>
<rect x="469.5" y="79.5" width="79" height="79" stroke="white"/>
<rect x="-4.5" y="158.5" width="79" height="79" stroke="white"/>
<rect x="74.5" y="158.5" width="79" height="79" stroke="white"/>
<rect x="153.5" y="158.5" width="79" height="79" fill="white" fill-opacity="0.2" stroke="white"/>
<rect x="232.5" y="158.5" width="79" height="79" stroke="white"/>
<rect x="311.5" y="158.5" width="79" height="79" fill="white" fill-opacity="0.2" stroke="white"/>
<rect x="390.5" y="158.5" width="79" height="79" stroke="white"/>
<rect x="469.5" y="158.5" width="79" height="79" stroke="white"/>
<rect x="-4.5" y="237.5" width="79" height="79" stroke="white"/>
<rect x="74.5" y="237.5" width="79" height="79" stroke="white"/>
<rect x="153.5" y="237.5" width="79" height="79" stroke="white"/>
<rect x="232.5" y="237.5" width="79" height="79" stroke="white"/>
<rect x="311.5" y="237.5" width="79" height="79" stroke="white"/>
<rect x="390.5" y="237.5" width="79" height="79" stroke="white"/>
<rect x="469.5" y="237.5" width="79" height="79" stroke="white"/>
<rect x="-4.5" y="316.5" width="79" height="79" stroke="white"/>
<rect x="74.5" y="316.5" width="79" height="79" fill="white" fill-opacity="0.2" stroke="white"/>
<rect x="153.5" y="316.5" width="79" height="79" stroke="white"/>
<rect x="232.5" y="316.5" width="79" height="79" stroke="white"/>
<rect x="311.5" y="316.5" width="79" height="79" stroke="white"/>
<rect x="390.5" y="316.5" width="79" height="79" stroke="white"/>
<rect x="469.5" y="316.5" width="79" height="79" stroke="white"/>
<rect x="-4.5" y="395.5" width="79" height="79" stroke="white"/>
<rect x="74.5" y="395.5" width="79" height="79" stroke="white"/>
<rect x="153.5" y="395.5" width="79" height="79" stroke="white"/>
<rect x="232.5" y="395.5" width="79" height="79" stroke="white"/>
<rect x="311.5" y="395.5" width="79" height="79" stroke="white"/>
<rect x="390.5" y="395.5" width="79" height="79" stroke="white"/>
<rect x="469.5" y="395.5" width="79" height="79" stroke="white"/>
<rect x="-5.5" y="473.5" width="79" height="79" stroke="white"/>
<rect x="73.5" y="473.5" width="79" height="79" stroke="white"/>
<rect x="152.5" y="473.5" width="79" height="79" stroke="white"/>
<rect x="231.5" y="473.5" width="79" height="79" stroke="white"/>
<rect x="310.5" y="473.5" width="79" height="79" fill="white" fill-opacity="0.2" stroke="white"/>
<rect x="389.5" y="473.5" width="79" height="79" stroke="white"/>
<rect x="468.5" y="473.5" width="79" height="79" stroke="white"/>
<rect x="-5.5" y="552.5" width="79" height="79" stroke="white"/>
<rect x="73.5" y="552.5" width="79" height="79" stroke="white"/>
<rect x="152.5" y="552.5" width="79" height="79" stroke="white"/>
<rect x="231.5" y="552.5" width="79" height="79" stroke="white"/>
<rect x="310.5" y="552.5" width="79" height="79" stroke="white"/>
<rect x="389.5" y="552.5" width="79" height="79" stroke="white"/>
<rect x="468.5" y="552.5" width="79" height="79" stroke="white"/>
<rect x="-5.5" y="631.5" width="79" height="79" stroke="white"/>
<rect x="73.5" y="631.5" width="79" height="79" stroke="white"/>
<rect x="152.5" y="631.5" width="79" height="79" fill="white" fill-opacity="0.2" stroke="white"/>
<rect x="231.5" y="631.5" width="79" height="79" stroke="white"/>
<rect x="310.5" y="631.5" width="79" height="79" fill="white" fill-opacity="0.2" stroke="white"/>
<rect x="389.5" y="631.5" width="79" height="79" stroke="white"/>
<rect x="468.5" y="631.5" width="79" height="79" stroke="white"/>
<rect x="-5.5" y="710.5" width="79" height="79" stroke="white"/>
<rect x="73.5" y="710.5" width="79" height="79" stroke="white"/>
<rect x="152.5" y="710.5" width="79" height="79" stroke="white"/>
<rect x="231.5" y="710.5" width="79" height="79" stroke="white"/>
<rect x="310.5" y="710.5" width="79" height="79" stroke="white"/>
<rect x="389.5" y="710.5" width="79" height="79" stroke="white"/>
<rect x="468.5" y="710.5" width="79" height="79" stroke="white"/>
<rect x="-5.5" y="789.5" width="79" height="79" stroke="white"/>
<rect x="73.5" y="789.5" width="79" height="79" fill="white" fill-opacity="0.2" stroke="white"/>
<rect x="152.5" y="789.5" width="79" height="79" stroke="white"/>
<rect x="231.5" y="789.5" width="79" height="79" stroke="white"/>
<rect x="310.5" y="789.5" width="79" height="79" stroke="white"/>
<rect x="389.5" y="789.5" width="79" height="79" stroke="white"/>
<rect x="468.5" y="789.5" width="79" height="79" stroke="white"/>
<rect x="-5.5" y="868.5" width="79" height="79" stroke="white"/>
<rect x="73.5" y="868.5" width="79" height="79" stroke="white"/>
<rect x="152.5" y="868.5" width="79" height="79" stroke="white"/>
<rect x="231.5" y="868.5" width="79" height="79" stroke="white"/>
<rect x="310.5" y="868.5" width="79" height="79" stroke="white"/>
<rect x="389.5" y="868.5" width="79" height="79" stroke="white"/>
<rect x="468.5" y="868.5" width="79" height="79" stroke="white"/>
<rect x="547.5" y="0.5" width="79" height="79" stroke="white"/>
<rect x="626.5" y="0.5" width="79" height="79" stroke="white"/>
<rect x="705.5" y="0.5" width="79" height="79" stroke="white"/>
<rect x="784.5" y="0.5" width="79" height="79" stroke="white"/>
<rect x="863.5" y="0.5" width="79" height="79" stroke="white"/>
<rect x="942.5" y="0.5" width="79" height="79" fill="white" fill-opacity="0.2" stroke="white"/>
<rect x="1021.5" y="0.5" width="79" height="79" stroke="white"/>
<rect x="1100.5" y="0.5" width="79" height="79" stroke="white"/>
<rect x="547.5" y="79.5" width="79" height="79" stroke="white"/>
<rect x="626.5" y="79.5" width="79" height="79" stroke="white"/>
<rect x="705.5" y="79.5" width="79" height="79" stroke="white"/>
<rect x="784.5" y="79.5" width="79" height="79" stroke="white"/>
<rect x="863.5" y="79.5" width="79" height="79" stroke="white"/>
<rect x="942.5" y="79.5" width="79" height="79" stroke="white"/>
<rect x="1021.5" y="79.5" width="79" height="79" stroke="white"/>
<rect x="1100.5" y="79.5" width="79" height="79" stroke="white"/>
<rect x="547.5" y="158.5" width="79" height="79" stroke="white"/>
<rect x="626.5" y="158.5" width="79" height="79" stroke="white"/>
<rect x="705.5" y="158.5" width="79" height="79" stroke="white"/>
<rect x="784.5" y="158.5" width="79" height="79" fill="white" fill-opacity="0.2" stroke="white"/>
<rect x="863.5" y="158.5" width="79" height="79" stroke="white"/>
<rect x="942.5" y="158.5" width="79" height="79" fill="white" fill-opacity="0.2" stroke="white"/>
<rect x="1021.5" y="158.5" width="79" height="79" stroke="white"/>
<rect x="1100.5" y="158.5" width="79" height="79" stroke="white"/>
<rect x="547.5" y="237.5" width="79" height="79" stroke="white"/>
<rect x="626.5" y="237.5" width="79" height="79" stroke="white"/>
<rect x="705.5" y="237.5" width="79" height="79" stroke="white"/>
<rect x="784.5" y="237.5" width="79" height="79" stroke="white"/>
<rect x="863.5" y="237.5" width="79" height="79" stroke="white"/>
<rect x="942.5" y="237.5" width="79" height="79" stroke="white"/>
<rect x="1021.5" y="237.5" width="79" height="79" stroke="white"/>
<rect x="1100.5" y="237.5" width="79" height="79" stroke="white"/>
<rect x="547.5" y="316.5" width="79" height="79" stroke="white"/>
<rect x="626.5" y="316.5" width="79" height="79" stroke="white"/>
<rect x="705.5" y="316.5" width="79" height="79" fill="white" fill-opacity="0.2" stroke="white"/>
<rect x="784.5" y="316.5" width="79" height="79" stroke="white"/>
<rect x="863.5" y="316.5" width="79" height="79" stroke="white"/>
<rect x="942.5" y="316.5" width="79" height="79" stroke="white"/>
<rect x="1021.5" y="316.5" width="79" height="79" stroke="white"/>
<rect x="1100.5" y="316.5" width="79" height="79" stroke="white"/>
<rect x="547.5" y="395.5" width="79" height="79" stroke="white"/>
<rect x="626.5" y="395.5" width="79" height="79" stroke="white"/>
<rect x="705.5" y="395.5" width="79" height="79" stroke="white"/>
<rect x="784.5" y="395.5" width="79" height="79" stroke="white"/>
<rect x="863.5" y="395.5" width="79" height="79" stroke="white"/>
<rect x="942.5" y="395.5" width="79" height="79" stroke="white"/>
<rect x="1021.5" y="395.5" width="79" height="79" stroke="white"/>
<rect x="1100.5" y="395.5" width="79" height="79" stroke="white"/>
<rect x="546.5" y="473.5" width="79" height="79" stroke="white"/>
<rect x="625.5" y="473.5" width="79" height="79" stroke="white"/>
<rect x="704.5" y="473.5" width="79" height="79" stroke="white"/>
<rect x="783.5" y="473.5" width="79" height="79" stroke="white"/>
<rect x="862.5" y="473.5" width="79" height="79" stroke="white"/>
<rect x="941.5" y="473.5" width="79" height="79" fill="white" fill-opacity="0.2" stroke="white"/>
<rect x="1020.5" y="473.5" width="79" height="79" stroke="white"/>
<rect x="1099.5" y="473.5" width="79" height="79" stroke="white"/>
<rect x="546.5" y="552.5" width="79" height="79" stroke="white"/>
<rect x="625.5" y="552.5" width="79" height="79" stroke="white"/>
<rect x="704.5" y="552.5" width="79" height="79" stroke="white"/>
<rect x="783.5" y="552.5" width="79" height="79" stroke="white"/>
<rect x="862.5" y="552.5" width="79" height="79" stroke="white"/>
<rect x="941.5" y="552.5" width="79" height="79" stroke="white"/>
<rect x="1020.5" y="552.5" width="79" height="79" stroke="white"/>
<rect x="1099.5" y="552.5" width="79" height="79" stroke="white"/>
<rect x="546.5" y="631.5" width="79" height="79" stroke="white"/>
<rect x="625.5" y="631.5" width="79" height="79" stroke="white"/>
<rect x="704.5" y="631.5" width="79" height="79" stroke="white"/>
<rect x="783.5" y="631.5" width="79" height="79" fill="white" fill-opacity="0.2" stroke="white"/>
<rect x="862.5" y="631.5" width="79" height="79" stroke="white"/>
<rect x="941.5" y="631.5" width="79" height="79" fill="white" fill-opacity="0.2" stroke="white"/>
<rect x="1020.5" y="631.5" width="79" height="79" stroke="white"/>
<rect x="1099.5" y="631.5" width="79" height="79" stroke="white"/>
<rect x="546.5" y="710.5" width="79" height="79" stroke="white"/>
<rect x="625.5" y="710.5" width="79" height="79" stroke="white"/>
<rect x="704.5" y="710.5" width="79" height="79" stroke="white"/>
<rect x="783.5" y="710.5" width="79" height="79" stroke="white"/>
<rect x="862.5" y="710.5" width="79" height="79" stroke="white"/>
<rect x="941.5" y="710.5" width="79" height="79" stroke="white"/>
<rect x="1020.5" y="710.5" width="79" height="79" stroke="white"/>
<rect x="1099.5" y="710.5" width="79" height="79" stroke="white"/>
<rect x="546.5" y="789.5" width="79" height="79" stroke="white"/>
<rect x="625.5" y="789.5" width="79" height="79" stroke="white"/>
<rect x="704.5" y="789.5" width="79" height="79" fill="white" fill-opacity="0.2" stroke="white"/>
<rect x="783.5" y="789.5" width="79" height="79" stroke="white"/>
<rect x="862.5" y="789.5" width="79" height="79" stroke="white"/>
<rect x="941.5" y="789.5" width="79" height="79" stroke="white"/>
<rect x="1020.5" y="789.5" width="79" height="79" stroke="white"/>
<rect x="1099.5" y="789.5" width="79" height="79" stroke="white"/>
<rect x="546.5" y="868.5" width="79" height="79" stroke="white"/>
<rect x="625.5" y="868.5" width="79" height="79" stroke="white"/>
<rect x="704.5" y="868.5" width="79" height="79" stroke="white"/>
<rect x="783.5" y="868.5" width="79" height="79" stroke="white"/>
<rect x="862.5" y="868.5" width="79" height="79" stroke="white"/>
<rect x="941.5" y="868.5" width="79" height="79" stroke="white"/>
<rect x="1020.5" y="868.5" width="79" height="79" stroke="white"/>
<rect x="1099.5" y="868.5" width="79" height="79" stroke="white"/>
<rect x="1180.5" y="0.5" width="79" height="79" stroke="white"/>
<rect x="1259.5" y="0.5" width="79" height="79" stroke="white"/>
<rect x="1338.5" y="0.5" width="79" height="79" stroke="white"/>
<rect x="1417.5" y="0.5" width="79" height="79" stroke="white"/>
<rect x="1496.5" y="0.5" width="79" height="79" stroke="white"/>
<rect x="1575.5" y="0.5" width="79" height="79" fill="white" fill-opacity="0.2" stroke="white"/>
<rect x="1654.5" y="0.5" width="79" height="79" stroke="white"/>
<rect x="1180.5" y="79.5" width="79" height="79" stroke="white"/>
<rect x="1259.5" y="79.5" width="79" height="79" stroke="white"/>
<rect x="1338.5" y="79.5" width="79" height="79" stroke="white"/>
<rect x="1417.5" y="79.5" width="79" height="79" stroke="white"/>
<rect x="1496.5" y="79.5" width="79" height="79" stroke="white"/>
<rect x="1575.5" y="79.5" width="79" height="79" stroke="white"/>
<rect x="1654.5" y="79.5" width="79" height="79" stroke="white"/>
<rect x="1180.5" y="158.5" width="79" height="79" stroke="white"/>
<rect x="1259.5" y="158.5" width="79" height="79" stroke="white"/>
<rect x="1338.5" y="158.5" width="79" height="79" stroke="white"/>
<rect x="1417.5" y="158.5" width="79" height="79" fill="white" fill-opacity="0.2" stroke="white"/>
<rect x="1496.5" y="158.5" width="79" height="79" stroke="white"/>
<rect x="1575.5" y="158.5" width="79" height="79" fill="white" fill-opacity="0.2" stroke="white"/>
<rect x="1654.5" y="158.5" width="79" height="79" stroke="white"/>
<rect x="1180.5" y="237.5" width="79" height="79" stroke="white"/>
<rect x="1259.5" y="237.5" width="79" height="79" stroke="white"/>
<rect x="1338.5" y="237.5" width="79" height="79" stroke="white"/>
<rect x="1417.5" y="237.5" width="79" height="79" stroke="white"/>
<rect x="1496.5" y="237.5" width="79" height="79" stroke="white"/>
<rect x="1575.5" y="237.5" width="79" height="79" stroke="white"/>
<rect x="1654.5" y="237.5" width="79" height="79" stroke="white"/>
<rect x="1180.5" y="316.5" width="79" height="79" stroke="white"/>
<rect x="1259.5" y="316.5" width="79" height="79" stroke="white"/>
<rect x="1338.5" y="316.5" width="79" height="79" fill="white" fill-opacity="0.2" stroke="white"/>
<rect x="1417.5" y="316.5" width="79" height="79" stroke="white"/>
<rect x="1496.5" y="316.5" width="79" height="79" stroke="white"/>
<rect x="1575.5" y="316.5" width="79" height="79" stroke="white"/>
<rect x="1654.5" y="316.5" width="79" height="79" stroke="white"/>
<rect x="1180.5" y="395.5" width="79" height="79" stroke="white"/>
<rect x="1259.5" y="395.5" width="79" height="79" stroke="white"/>
<rect x="1338.5" y="395.5" width="79" height="79" stroke="white"/>
<rect x="1417.5" y="395.5" width="79" height="79" stroke="white"/>
<rect x="1496.5" y="395.5" width="79" height="79" stroke="white"/>
<rect x="1575.5" y="395.5" width="79" height="79" stroke="white"/>
<rect x="1654.5" y="395.5" width="79" height="79" stroke="white"/>
<rect x="1179.5" y="473.5" width="79" height="79" stroke="white"/>
<rect x="1258.5" y="473.5" width="79" height="79" stroke="white"/>
<rect x="1337.5" y="473.5" width="79" height="79" stroke="white"/>
<rect x="1416.5" y="473.5" width="79" height="79" stroke="white"/>
<rect x="1495.5" y="473.5" width="79" height="79" stroke="white"/>
<rect x="1574.5" y="473.5" width="79" height="79" fill="white" fill-opacity="0.2" stroke="white"/>
<rect x="1653.5" y="473.5" width="79" height="79" stroke="white"/>
<rect x="1179.5" y="552.5" width="79" height="79" stroke="white"/>
<rect x="1258.5" y="552.5" width="79" height="79" stroke="white"/>
<rect x="1337.5" y="552.5" width="79" height="79" stroke="white"/>
<rect x="1416.5" y="552.5" width="79" height="79" stroke="white"/>
<rect x="1495.5" y="552.5" width="79" height="79" stroke="white"/>
<rect x="1574.5" y="552.5" width="79" height="79" stroke="white"/>
<rect x="1653.5" y="552.5" width="79" height="79" stroke="white"/>
<rect x="1179.5" y="631.5" width="79" height="79" stroke="white"/>
<rect x="1258.5" y="631.5" width="79" height="79" stroke="white"/>
<rect x="1337.5" y="631.5" width="79" height="79" stroke="white"/>
<rect x="1416.5" y="631.5" width="79" height="79" fill="white" fill-opacity="0.2" stroke="white"/>
<rect x="1495.5" y="631.5" width="79" height="79" stroke="white"/>
<rect x="1574.5" y="631.5" width="79" height="79" fill="white" fill-opacity="0.2" stroke="white"/>
<rect x="1653.5" y="631.5" width="79" height="79" stroke="white"/>
<rect x="1179.5" y="710.5" width="79" height="79" stroke="white"/>
<rect x="1258.5" y="710.5" width="79" height="79" stroke="white"/>
<rect x="1337.5" y="710.5" width="79" height="79" stroke="white"/>
<rect x="1416.5" y="710.5" width="79" height="79" stroke="white"/>
<rect x="1495.5" y="710.5" width="79" height="79" stroke="white"/>
<rect x="1574.5" y="710.5" width="79" height="79" stroke="white"/>
<rect x="1653.5" y="710.5" width="79" height="79" stroke="white"/>
<rect x="1179.5" y="789.5" width="79" height="79" stroke="white"/>
<rect x="1258.5" y="789.5" width="79" height="79" stroke="white"/>
<rect x="1337.5" y="789.5" width="79" height="79" fill="white" fill-opacity="0.2" stroke="white"/>
<rect x="1416.5" y="789.5" width="79" height="79" stroke="white"/>
<rect x="1495.5" y="789.5" width="79" height="79" stroke="white"/>
<rect x="1574.5" y="789.5" width="79" height="79" stroke="white"/>
<rect x="1653.5" y="789.5" width="79" height="79" stroke="white"/>
<rect x="1179.5" y="868.5" width="79" height="79" stroke="white"/>
<rect x="1258.5" y="868.5" width="79" height="79" stroke="white"/>
<rect x="1337.5" y="868.5" width="79" height="79" stroke="white"/>
<rect x="1416.5" y="868.5" width="79" height="79" stroke="white"/>
<rect x="1495.5" y="868.5" width="79" height="79" stroke="white"/>
<rect x="1574.5" y="868.5" width="79" height="79" stroke="white"/>
<rect x="1653.5" y="868.5" width="79" height="79" stroke="white"/>
<g filter="url(#filter0_f_9_246)">
<ellipse cx="864" cy="473" rx="864" ry="473" fill="url(#paint1_linear_9_246)" fill-opacity="0.5"/>
</g>
</g>
</g>
<defs>
<filter id="filter0_f_9_246" x="-500" y="-500" width="2728" height="1946" filterUnits="userSpaceOnUse" color-interpolation-filters="sRGB">
<feFlood flood-opacity="0" result="BackgroundImageFix"/>
<feBlend mode="normal" in="SourceGraphic" in2="BackgroundImageFix" result="shape"/>
<feGaussianBlur stdDeviation="250" result="effect1_foregroundBlur_9_246"/>
</filter>
<radialGradient id="paint0_radial_9_246" cx="0" cy="0" r="1" gradientUnits="userSpaceOnUse" gradientTransform="translate(864 498) rotate(90) scale(498 864)">
<stop stop-color="#D9D9D9" stop-opacity="0.2"/>
<stop offset="0.743349" stop-color="#D9D9D9" stop-opacity="0"/>
</radialGradient>
<linearGradient id="paint1_linear_9_246" x1="864" y1="0" x2="864" y2="946" gradientUnits="userSpaceOnUse">
<stop stop-color="#0066FF"/>
<stop offset="1" stop-color="#000D26"/>
</linearGradient>
<clipPath id="clip0_9_246">
<rect width="1728" height="996" fill="white"/>
</clipPath>
</defs>
</svg>
