<svg width="373" height="373" viewBox="0 0 373 373" fill="none" xmlns="http://www.w3.org/2000/svg">
<g style="mix-blend-mode:screen">
<path d="M59.8203 53.3929C186.263 -6.10904 272.083 72.7514 299.188 119.619L345.435 93.6382C240.54 -53.8939 111.319 5.33626 59.8203 53.3929Z" fill="white"/>
</g>
<g style="mix-blend-mode:screen">
<path d="M55.0214 315.253C9.85718 232.149 26.5019 79.8087 182.395 55.7443C-66.77 28.723 -8.41168 267.838 55.0214 315.253Z" fill="white"/>
</g>
<g style="mix-blend-mode:screen">
<path d="M53.9011 190.373C65.0797 263.477 139.062 392.302 313.042 322.777C295.258 367.253 28.4952 454.67 53.9011 190.373Z" fill="white"/>
<path d="M373 186.795H187.029V240.472H305.42C283.44 266.544 228.989 318.688 187.029 318.688C332.554 349.769 371.645 243.71 373 186.795Z" fill="white"/>
</g>
</svg>
