<svg width="190" height="58" viewBox="0 0 190 58" fill="none" xmlns="http://www.w3.org/2000/svg">
<path fill-rule="evenodd" clip-rule="evenodd" d="M46.9878 46.9878C51.7585 42.2171 54.4386 35.7467 54.4386 29C54.4386 22.2533 51.7585 15.7829 46.9878 11.0122C42.2171 6.24153 35.7467 3.5614 29 3.5614C22.2533 3.5614 15.7829 6.24153 11.0122 11.0122C6.24153 15.7829 3.5614 22.2533 3.5614 29C3.5614 35.7467 6.24153 42.2171 11.0122 46.9878C15.7829 51.7585 22.2533 54.4386 29 54.4386C35.7467 54.4386 42.2171 51.7585 46.9878 46.9878ZM35.4169 5.20661L33.9973 10.1367C33.9892 10.1644 33.9708 10.1879 33.9459 10.2021C33.921 10.2162 33.8916 10.2201 33.8641 10.2127C30.7996 9.42473 27.7227 9.37521 24.6333 10.0641C24.6053 10.0704 24.576 10.0654 24.5516 10.0501C24.5271 10.0349 24.5095 10.0107 24.5024 9.98268L23.2753 5.03384C23.2719 5.01958 23.2713 5.00478 23.2736 4.99031C23.2759 4.97585 23.281 4.962 23.2887 4.9496C23.2964 4.93719 23.3065 4.92647 23.3184 4.91807C23.3302 4.90967 23.3437 4.90376 23.3579 4.90068C27.368 3.98949 31.3616 4.04598 35.3387 5.07015C35.3529 5.07385 35.3662 5.08033 35.3778 5.08923C35.3895 5.09812 35.3992 5.10925 35.4065 5.12196C35.4138 5.13467 35.4184 5.1487 35.4202 5.16324C35.422 5.17777 35.4209 5.19252 35.4169 5.20661ZM15.5236 14.8281C15.3226 14.63 15.1212 14.4275 14.9194 14.2206C13.9429 13.214 12.973 12.195 12.0098 11.1635C11.99 11.1421 11.9794 11.1138 11.9805 11.0848C11.9815 11.0557 11.994 11.0282 12.0153 11.0083C15.013 8.19477 18.4956 6.23556 22.4632 5.13068C22.4773 5.12671 22.4922 5.12562 22.5068 5.12747C22.5213 5.12933 22.5354 5.13409 22.5481 5.14147C22.5609 5.14886 22.572 5.15872 22.5808 5.17048C22.5897 5.18223 22.5961 5.19564 22.5996 5.20991L23.8278 10.151C23.8345 10.1788 23.8303 10.208 23.8159 10.2326C23.8016 10.2573 23.7782 10.2754 23.7507 10.2831C20.687 11.1466 17.9952 12.6623 15.6754 14.8303C15.6548 14.8497 15.6274 14.8604 15.5991 14.86C15.5707 14.8596 15.5436 14.8481 15.5236 14.8281ZM46.4871 11.5899C46.4813 11.6033 46.4729 11.6155 46.4623 11.6257L42.7405 15.2143C42.72 15.2342 42.6924 15.2452 42.6636 15.245C42.6348 15.2448 42.6072 15.2334 42.5865 15.2132C40.3503 13.0064 37.7334 11.4236 34.7357 10.4647C34.7083 10.456 34.6854 10.4371 34.6718 10.4118C34.6583 10.3865 34.6551 10.3569 34.663 10.3293L36.0816 5.3992C36.0858 5.38498 36.0927 5.37173 36.102 5.36023C36.1113 5.34873 36.1228 5.33921 36.1357 5.33224C36.1486 5.32526 36.1628 5.32097 36.1773 5.31962C36.1918 5.31827 36.2064 5.31988 36.2202 5.32436C40.1386 6.54002 43.5531 8.58801 46.4634 11.4683C46.4739 11.4786 46.4821 11.4909 46.4877 11.5045C46.4933 11.518 46.4961 11.5326 46.496 11.5472C46.4959 11.5619 46.4929 11.5764 46.4871 11.5899ZM42.1359 15.7507C45.6382 19.253 47.6057 24.003 47.6057 28.956C47.6057 33.9089 45.6382 38.659 42.1359 42.1612C38.6337 45.6635 33.8836 47.6311 28.9307 47.6311C23.9777 47.6311 19.2277 45.6635 15.7254 42.1612C12.2231 38.659 10.2556 33.9089 10.2556 28.956C10.2556 24.003 12.2231 19.253 15.7254 15.7507C19.2277 12.2485 23.9777 10.2809 28.9307 10.2809C33.8836 10.2809 38.6337 12.2485 42.1359 15.7507ZM10.2105 23.5416L5.33427 22.1374C5.3203 22.1334 5.30728 22.1266 5.29594 22.1175C5.28461 22.1084 5.27519 22.0972 5.26823 22.0845C5.26127 22.0718 5.25691 22.0579 5.2554 22.0436C5.25389 22.0292 5.25526 22.0148 5.25943 22.001C6.44355 18.051 8.47429 14.6043 11.3517 11.6609C11.362 11.6503 11.3744 11.6419 11.388 11.6362C11.4017 11.6306 11.4163 11.6277 11.4311 11.6278C11.4459 11.6279 11.4606 11.631 11.4741 11.6368C11.4877 11.6427 11.4999 11.6513 11.5101 11.662L15.0284 15.3134C15.0481 15.3338 15.0591 15.3611 15.0591 15.3896C15.0591 15.4181 15.0481 15.4456 15.0284 15.4663C12.8237 17.7531 11.2633 20.42 10.3469 23.4668C10.3385 23.4947 10.3195 23.5181 10.294 23.5321C10.2685 23.5461 10.2385 23.5495 10.2105 23.5416ZM43.1865 15.791C43.1876 15.7623 43.1997 15.735 43.2203 15.7151L46.94 12.1242C46.9504 12.1141 46.9628 12.1061 46.9764 12.1009C46.99 12.0956 47.0046 12.0931 47.0192 12.0935C47.0339 12.0939 47.0483 12.0972 47.0617 12.1032C47.0751 12.1093 47.0872 12.1179 47.0973 12.1286C49.8727 15.1204 51.8041 18.5862 52.8913 22.5259C52.8952 22.5401 52.8961 22.5549 52.8942 22.5694C52.8923 22.584 52.8875 22.598 52.8801 22.6106C52.8727 22.6232 52.8629 22.6342 52.8512 22.6429C52.8395 22.6516 52.8262 22.6578 52.8121 22.6613L47.7521 23.9169C47.7241 23.9237 47.6946 23.9193 47.6697 23.9047C47.6449 23.8902 47.6267 23.8665 47.6189 23.8388C46.7848 20.8301 45.3168 18.1735 43.2148 15.8691C43.1957 15.8477 43.1855 15.8197 43.1865 15.791ZM5.15269 22.8065L10.0366 24.2118C10.0636 24.2195 10.0865 24.2374 10.1007 24.2618C10.1148 24.2862 10.1191 24.3152 10.1125 24.3428C9.37375 27.4249 9.37521 30.5069 10.1169 33.589C10.1237 33.6175 10.119 33.6474 10.104 33.6723C10.0889 33.6973 10.0647 33.7152 10.0366 33.7221L5.08666 34.9481C5.07256 34.9517 5.05789 34.9524 5.0435 34.9502C5.02912 34.9481 5.01531 34.943 5.0029 34.9354C4.99049 34.9279 4.97973 34.9179 4.97124 34.906C4.96276 34.8942 4.95673 34.8808 4.9535 34.8666C4.00709 30.869 4.02764 26.8757 5.01513 22.8869C5.01871 22.8724 5.02514 22.8589 5.03404 22.847C5.04294 22.8351 5.05413 22.8251 5.06695 22.8177C5.07977 22.8102 5.09397 22.8053 5.10869 22.8034C5.12342 22.8015 5.13838 22.8026 5.15269 22.8065ZM52.8066 35.3574L47.7774 33.9103C47.7498 33.9028 47.7263 33.8848 47.7118 33.8601C47.6974 33.8354 47.6933 33.806 47.7004 33.7783C48.3981 31.0461 48.4927 28.27 47.9843 25.4499C47.9205 25.097 47.8798 24.8483 47.8622 24.7037C47.8587 24.6774 47.8652 24.6507 47.8804 24.6286C47.8956 24.6065 47.9185 24.5906 47.9447 24.5838L52.9816 23.3336C52.9958 23.3302 53.0106 23.3297 53.025 23.3321C53.0395 23.3345 53.0533 23.3397 53.0657 23.3475C53.0781 23.3553 53.0888 23.3655 53.0973 23.3774C53.1057 23.3894 53.1116 23.403 53.1147 23.4173C54.0068 27.3856 53.95 31.3396 52.9441 35.2793C52.9405 35.2936 52.9339 35.307 52.925 35.3187C52.916 35.3305 52.9048 35.3403 52.8919 35.3475C52.8791 35.3548 52.8649 35.3595 52.8503 35.3612C52.8356 35.3629 52.8208 35.3616 52.8066 35.3574ZM5.26824 35.6183L10.2237 34.389C10.2509 34.3822 10.2798 34.3862 10.3042 34.4001C10.3286 34.4141 10.3467 34.4369 10.3546 34.4639C11.2651 37.4814 12.8083 40.1269 14.9843 42.4005C15.0044 42.4215 15.0153 42.4497 15.0147 42.4788C15.0141 42.5078 15.002 42.5355 14.981 42.5557L11.2867 46.1179C11.2763 46.128 11.264 46.1359 11.2504 46.1412C11.2369 46.1465 11.2224 46.1491 11.2079 46.1488C11.1934 46.1485 11.1791 46.1453 11.1658 46.1395C11.1525 46.1336 11.1405 46.1251 11.1305 46.1146C8.30812 43.1477 6.32763 39.6948 5.189 35.7558C5.18486 35.7416 5.18364 35.7267 5.18541 35.7119C5.18719 35.6972 5.19191 35.683 5.19931 35.6702C5.20671 35.6573 5.21663 35.6461 5.22848 35.6372C5.24032 35.6283 5.25385 35.6218 5.26824 35.6183ZM46.5279 46.3693C46.5144 46.3636 46.5022 46.3551 46.4921 46.3446L42.8572 42.5755C42.8375 42.5547 42.8265 42.5272 42.8265 42.4987C42.8265 42.4702 42.8375 42.4429 42.8572 42.4225C44.9995 40.1959 46.5317 37.6054 47.4539 34.6509C47.4627 34.6235 47.482 34.6006 47.5074 34.587C47.5329 34.5735 47.5626 34.5703 47.5903 34.5783L52.6206 36.0265C52.6345 36.0305 52.6475 36.0373 52.6588 36.0464C52.6701 36.0555 52.6794 36.0669 52.6863 36.0798C52.6931 36.0927 52.6974 36.1069 52.6988 36.1216C52.7001 36.1362 52.6986 36.1511 52.6943 36.1652C51.4978 40.0477 49.4828 43.4412 46.6494 46.3457C46.6391 46.3561 46.6268 46.3644 46.6133 46.3699C46.5997 46.3755 46.5852 46.3784 46.5705 46.3783C46.5559 46.3782 46.5414 46.3751 46.5279 46.3693ZM22.0582 52.7549C19.866 52.1129 17.803 51.186 15.8691 49.974C14.393 49.0481 13.0292 47.9784 11.7776 46.765C11.767 46.7546 11.7586 46.7423 11.7529 46.7286C11.7472 46.715 11.7443 46.7003 11.7444 46.6855C11.7445 46.6707 11.7476 46.6561 11.7535 46.6425C11.7594 46.6289 11.7679 46.6167 11.7787 46.6065L15.4785 43.0377C15.499 43.0181 15.5262 43.0071 15.5545 43.0069C15.5827 43.0067 15.6098 43.0173 15.6303 43.0366C17.9076 45.1744 20.5476 46.6857 23.5504 47.5705C23.5782 47.5787 23.6016 47.5975 23.6156 47.6228C23.6297 47.6482 23.6331 47.678 23.6253 47.7059L22.1947 52.6789C22.1864 52.7072 22.1674 52.731 22.1418 52.7453C22.1163 52.7595 22.0862 52.7629 22.0582 52.7549ZM46.0187 46.9543C46.0127 46.9676 46.0042 46.9795 45.9935 46.9895C43.0325 49.7641 39.5994 51.7112 35.6942 52.8308C35.6799 52.8348 35.6649 52.8359 35.6501 52.8341C35.6354 52.8323 35.6212 52.8275 35.6084 52.8201C35.5955 52.8127 35.5843 52.8028 35.5755 52.7911C35.5666 52.7793 35.5602 52.7659 35.5566 52.7516L34.2988 47.685C34.292 47.6574 34.2961 47.6283 34.3102 47.6037C34.3244 47.5791 34.3475 47.5609 34.3747 47.5529C37.3416 46.6711 39.9534 45.173 42.2101 43.0586C42.2313 43.039 42.2592 43.0285 42.288 43.0293C42.3169 43.0301 42.3442 43.0422 42.3642 43.063L45.9979 46.8332C46.008 46.8437 46.0158 46.8561 46.021 46.8697C46.0263 46.8833 46.0287 46.8977 46.0283 46.9123C46.0279 46.9268 46.0246 46.9411 46.0187 46.9543ZM34.8039 53.063C30.8444 53.9889 26.8908 53.9683 22.943 53.0014C22.9286 52.9978 22.9151 52.9914 22.9032 52.9825C22.8914 52.9735 22.8815 52.9623 22.8741 52.9495C22.8667 52.9366 22.8619 52.9224 22.8602 52.9077C22.8584 52.893 22.8596 52.878 22.8637 52.8638L24.2977 47.8754C24.3057 47.8481 24.3237 47.825 24.3481 47.8106C24.3724 47.7963 24.4013 47.7919 24.4286 47.7983C27.452 48.5063 30.4754 48.5015 33.4987 47.784C33.5269 47.7774 33.5565 47.7821 33.5813 47.7971C33.606 47.8121 33.6238 47.8363 33.6308 47.8643L34.8853 52.9287C34.8889 52.9429 34.8897 52.9577 34.8875 52.9721C34.8854 52.9866 34.8804 53.0005 34.8728 53.013C34.8652 53.0254 34.8552 53.0363 34.8434 53.0449C34.8316 53.0535 34.8181 53.0596 34.8039 53.063ZM31.8677 5.6919C31.7811 5.52331 31.6892 5.34451 31.4529 5.18571C30.7793 4.73344 30.4627 5.19705 30.1562 5.64587C29.8609 6.07835 29.5749 6.49711 28.9879 6.0694C28.8399 5.96159 28.7538 5.80018 28.6672 5.63779C28.5805 5.47527 28.4933 5.31176 28.343 5.20002C28.0635 4.99166 27.7671 4.97259 27.4538 5.14279C27.2178 5.27054 27.1101 5.47512 27.0058 5.67308C26.8568 5.95603 26.715 6.22547 26.2158 6.23777C26.1929 6.23846 26.1705 6.24655 26.1519 6.26088C25.8864 6.46483 25.8794 6.67099 26.131 6.87935C26.149 6.89372 26.1704 6.90252 26.1927 6.90466C27.0506 6.96794 27.3198 6.51584 27.6889 5.89593C27.7114 5.85823 27.7342 5.81992 27.7575 5.78107C27.7672 5.76497 27.7808 5.75165 27.7972 5.74237C27.8135 5.73309 27.8319 5.72816 27.8508 5.72805C27.8697 5.72794 27.8883 5.73265 27.9049 5.74174C27.9215 5.75083 27.9356 5.76399 27.9457 5.77997C27.9893 5.85023 28.0317 5.92765 28.0753 6.00712C28.2042 6.24254 28.3431 6.49599 28.5521 6.63504C29.1221 7.01434 29.6951 7.01544 30.271 6.63834C30.485 6.49827 30.6196 6.25209 30.7494 6.01502C30.7878 5.94478 30.8258 5.87533 30.8653 5.80968C30.8744 5.7944 30.8873 5.78159 30.9026 5.77238C30.918 5.76317 30.9354 5.75784 30.9533 5.75686C31.0612 5.75099 31.1345 5.79904 31.1734 5.90102C31.4089 6.52022 31.8278 6.85477 32.4302 6.90466C32.7999 6.93437 33.0277 6.66365 32.779 6.32581C32.762 6.30313 32.7372 6.28779 32.7097 6.28289C32.1183 6.17946 31.999 5.94741 31.8677 5.6919ZM27.5489 8.08063L27.5488 8.08068C27.1768 8.66512 26.9222 9.06513 26.0122 8.95151C25.9892 8.94869 25.9676 8.93866 25.9506 8.92285C25.9336 8.90703 25.922 8.88625 25.9176 8.86347C25.8435 8.48784 25.973 8.29379 26.306 8.28132C26.6553 8.26809 26.8144 7.98822 26.9768 7.70256C27.1793 7.34644 27.3869 6.98132 27.9744 7.11261C28.2794 7.18075 28.4669 7.46517 28.6474 7.73883C28.907 8.13256 29.1519 8.50399 29.7109 8.17677C29.901 8.06577 29.9933 7.88982 30.0857 7.71352C30.1655 7.56123 30.2455 7.40868 30.3888 7.29749C30.7351 7.02824 31.0788 7.01724 31.4199 7.26448C31.6167 7.40684 31.7106 7.58522 31.7999 7.75486C31.9453 8.03106 32.0785 8.28412 32.6239 8.32094C32.6388 8.32198 32.6533 8.32603 32.6665 8.33284C32.6798 8.33966 32.6915 8.34908 32.7009 8.36055C32.8616 8.5535 32.8748 8.71637 32.7405 8.84916C32.4621 9.12318 31.8546 8.87667 31.6026 8.68299C31.4175 8.54 31.2814 8.3005 31.1585 8.08435C31.1272 8.02935 31.0968 7.97587 31.0667 7.92586C30.9368 7.7131 30.8275 7.72301 30.7388 7.95558C30.1874 9.4005 28.4377 9.28495 27.9248 7.82572C27.8764 7.6878 27.8115 7.67972 27.73 7.80151C27.6651 7.89806 27.6056 7.99149 27.5489 8.08063ZM18.8371 8.55977C18.7747 8.64488 18.7241 8.63864 18.6852 8.54106C18.581 8.28429 18.4277 8.05869 18.2252 7.86427C17.6992 7.36025 17.1027 7.71461 16.8738 8.29566C16.8682 8.31012 16.8596 8.32322 16.8485 8.33411C16.8374 8.34499 16.8242 8.35341 16.8096 8.35882C16.7951 8.36422 16.7796 8.36649 16.7641 8.36546C16.7486 8.36444 16.7335 8.36015 16.7198 8.35288L16.6031 8.29126C16.5824 8.28055 16.5585 8.2767 16.5349 8.28025C16.0316 8.35802 15.7264 8.64047 15.6193 9.12762C15.561 9.39283 15.5929 9.86714 15.8746 10.0179C16.0345 10.1037 16.1644 10.0751 16.2642 9.93207C16.3463 9.81542 16.3662 9.6962 16.3236 9.57441C16.2891 9.4761 16.2796 9.38109 16.295 9.28939C16.3287 9.08983 16.3966 9.07736 16.4986 9.25197L17.3625 10.7266C17.3738 10.7458 17.3905 10.7611 17.4105 10.7707C17.4305 10.7803 17.4529 10.7838 17.4747 10.7805C18.1599 10.6715 17.8707 10.2018 17.6622 9.86329L17.6622 9.86328C17.6349 9.81904 17.6091 9.77704 17.587 9.73838C17.39 9.39283 17.3316 8.82059 17.5341 8.50475C17.6838 8.27292 17.8136 8.28355 17.9237 8.53666C17.983 8.67287 18.0492 8.80961 18.1157 8.94712L18.1158 8.94713C18.3035 9.33508 18.4942 9.72912 18.5422 10.1346C18.5465 10.1725 18.5512 10.2114 18.556 10.2513L18.5562 10.2529L18.5562 10.253L18.5562 10.253C18.607 10.6742 18.6692 11.1907 18.4904 11.5652C18.4533 11.6431 18.3967 11.6975 18.3424 11.7498C18.25 11.8387 18.1641 11.9214 18.1911 12.1022C18.2395 12.4213 18.5433 12.4731 18.7766 12.286C19.3312 11.8425 19.3345 11.1459 19.2707 10.4944C19.268 10.4669 19.2759 10.4394 19.2926 10.4174C19.3093 10.3953 19.3337 10.3804 19.3609 10.3756C19.3954 10.369 19.4302 10.3668 19.4655 10.369C21.1107 10.4482 21.3605 8.00623 19.7439 8.05355C19.3807 8.06382 19.0785 8.23256 18.8371 8.55977ZM19.2344 9.47537C19.2527 9.22152 19.3532 8.99923 19.5359 8.80848C19.5503 8.79338 19.569 8.78268 19.5898 8.77767C20.5318 8.55207 20.205 9.95848 19.3026 9.58432C19.2811 9.57574 19.263 9.56056 19.2507 9.54098C19.2384 9.52139 19.2327 9.49842 19.2344 9.47537ZM39.6581 10.096L38.7194 9.64924C38.6954 9.63861 38.6761 9.61938 38.6655 9.59531C38.4498 9.11331 38.8372 8.96034 39.2168 9.12981C39.4296 9.22446 39.6394 9.3213 39.8463 9.42034C39.8634 9.42853 39.8824 9.43219 39.9013 9.43097C39.9203 9.42976 39.9386 9.4237 39.9544 9.4134C39.9702 9.4031 39.9831 9.3889 39.9917 9.37218C40.0004 9.35546 40.0045 9.33679 40.0037 9.318C39.9912 8.97758 39.9178 8.64964 39.7836 8.33417C39.775 8.31477 39.7723 8.29333 39.7759 8.27254C39.8353 7.9358 39.9835 7.82208 40.2205 7.9314C40.6805 8.14379 40.7168 9.30589 40.6673 9.71967C40.6645 9.74303 40.6691 9.76664 40.6806 9.78704C40.6921 9.80744 40.7098 9.82355 40.7311 9.83302L40.971 9.94197C40.9918 9.95165 41.0151 9.95453 41.0376 9.95018C41.0602 9.94583 41.0807 9.93449 41.0965 9.91776C41.6584 9.31983 42.3499 9.03627 43.1708 9.06709C43.5813 9.08139 43.8399 9.38843 43.4515 9.72077C43.4308 9.73787 43.4055 9.74721 43.3799 9.74718C43.0395 9.74718 42.7505 9.77323 42.5128 9.82532C42.2677 9.87887 42.0414 9.99222 41.8338 10.1654C41.8198 10.177 41.8089 10.192 41.8021 10.209C41.7954 10.2259 41.7929 10.2442 41.795 10.2623C41.7971 10.2804 41.8036 10.2978 41.814 10.3127C41.8244 10.3277 41.8384 10.3398 41.8547 10.348L42.3202 10.5813C42.3429 10.5927 42.3608 10.6114 42.3708 10.6342C42.5058 10.9262 42.4196 11.1151 42.1122 11.2009C42.0867 11.208 42.0598 11.2061 42.0363 11.1954L41.475 10.9357C41.4604 10.9291 41.4445 10.9257 41.4285 10.9258C41.4124 10.9259 41.3966 10.9295 41.3821 10.9363C41.3675 10.9431 41.3546 10.9529 41.3443 10.9652C41.3339 10.9774 41.3263 10.9918 41.322 11.0072C41.2333 11.3403 41.2274 11.6697 41.3044 11.9955C41.3969 12.385 41.3055 12.8131 40.7916 12.5512C40.7675 12.5384 40.7488 12.5173 40.7388 12.4918C40.5187 11.899 40.5011 11.2992 40.686 10.6925C40.6937 10.6678 40.6924 10.6412 40.6823 10.6175C40.6722 10.5937 40.654 10.5742 40.631 10.5626L40.4934 10.4922C40.4699 10.4802 40.4428 10.477 40.4172 10.4833C40.3915 10.4895 40.369 10.5048 40.3536 10.5263C39.8423 11.2453 39.1464 11.6312 38.266 11.684C38.0107 11.6994 37.8478 11.5971 37.8346 11.3341C37.8236 11.1352 37.9509 11.0252 38.2165 11.0039C38.8159 10.957 39.3085 10.7116 39.6944 10.2677C39.7055 10.2549 39.7134 10.2398 39.7176 10.2234C39.7219 10.2071 39.7222 10.1899 39.7187 10.1733C39.7152 10.1567 39.7079 10.1411 39.6974 10.1277C39.6869 10.1143 39.6735 10.1035 39.6581 10.096ZM18.2736 35.2155C19.1944 35.2852 20.1089 35.3079 21.0171 35.2837C21.1785 35.2793 21.1987 35.3307 21.0777 35.4378C20.7989 35.6843 20.556 35.9631 20.3491 36.2741C19.7395 37.1941 19.7978 38.3177 20.2105 39.2795C20.3954 39.7109 20.7453 39.5668 20.928 39.2333C21.4518 38.2752 22.2676 37.7855 23.3755 37.7642C23.3946 37.7639 23.4135 37.7685 23.4303 37.7777C23.4471 37.787 23.4612 37.8004 23.4712 37.8168C23.4812 37.8331 23.4868 37.8518 23.4874 37.8709C23.4879 37.8901 23.4835 37.909 23.4745 37.926C23.1128 38.6039 22.7471 39.2788 22.3773 39.9508C21.6961 41.1878 21.2779 42.4401 21.6576 43.8278C21.7478 44.1569 21.9525 44.4199 22.3036 44.1304C22.3201 44.1175 22.3324 44.0999 22.3388 44.0798C22.6719 43.0681 23.2885 42.2596 24.1887 41.6544C24.918 41.1636 25.6193 40.5968 26.2928 39.9541C26.4051 39.847 26.4546 39.8709 26.4414 40.0257C26.3724 40.8297 26.3919 41.5557 26.4997 42.2035C26.6442 43.07 27.0265 43.8605 27.6464 44.575C28.003 44.9855 28.3012 44.6257 28.2715 44.2009C28.1537 42.5335 29.0067 41.2603 29.9264 39.8876C30.0295 39.7337 30.1334 39.5786 30.2369 39.4215C30.3169 39.2997 30.3983 39.1167 30.4812 38.8724C30.4835 38.8653 30.4881 38.8592 30.4942 38.8549C30.5003 38.8505 30.5077 38.8482 30.5153 38.8482H30.5506C30.5611 38.8483 30.5713 38.8521 30.5793 38.8589C30.5874 38.8657 30.5928 38.8752 30.5946 38.8856C30.8902 40.5312 31.8568 41.4545 33.4943 41.6555C33.7882 41.6907 33.9719 41.5883 33.9609 41.2714C33.9602 41.2505 33.9538 41.2303 33.9422 41.2131C33.2761 40.2204 33.2232 39.204 33.7838 38.1637C33.8454 38.0499 33.9092 38.0488 33.9752 38.1604C34.414 38.8955 34.8633 39.6313 35.3233 40.3679C36.0166 41.4761 36.8948 42.3587 38.1713 42.6932C38.4333 42.7615 38.858 42.7306 38.77 42.3576C38.7487 42.2673 38.6706 42.1423 38.5356 41.9823C37.7189 41.0136 37.6129 39.9413 37.504 38.8399C37.449 38.2835 37.3932 37.7196 37.2447 37.1578C37.2117 37.0331 37.1765 36.911 37.1391 36.7914C37.076 36.5881 37.1318 36.5471 37.3064 36.6681C37.7627 36.9836 38.2421 37.2583 38.7447 37.4924C39.6779 37.9267 40.6511 38.0653 41.6643 37.9083C42.275 37.8137 42.3267 37.4032 41.7809 37.1369C40.4398 36.4812 39.9349 35.4946 39.3674 34.3857C39.1367 33.935 38.8957 33.4641 38.584 32.987C38.5151 32.8806 38.4479 32.7721 38.3826 32.6613C38.3093 32.5358 38.3427 32.4929 38.4828 32.5325C38.8768 32.6433 39.2201 32.7115 39.5128 32.7372C40.6232 32.8363 41.5718 32.1837 42.2321 31.3352C42.3876 31.1357 42.3708 30.9577 42.1815 30.8015C42.1636 30.7865 42.1416 30.7776 42.1188 30.7762C42.0308 30.7697 41.9405 30.7647 41.8492 30.7596C41.5085 30.7408 41.1538 30.7212 40.8587 30.6188C40.1926 30.3899 39.6841 29.9681 39.3335 29.3533C39.3239 29.3367 39.3188 29.3178 39.3187 29.2987C39.3186 29.2795 39.3235 29.2606 39.333 29.244C39.3424 29.2273 39.3561 29.2134 39.3726 29.2036C39.3891 29.1938 39.4078 29.1885 39.427 29.1882C40.3162 29.1757 41.2039 29.1519 42.0901 29.1167C43.3821 29.0649 44.564 28.7348 45.4686 27.7961C45.8527 27.3966 45.6546 27.0401 45.1076 27.1391C43.7557 27.3817 42.6284 26.8849 41.4587 26.3693L41.4586 26.3693L41.4586 26.3693L41.4586 26.3693C41.2172 26.2629 40.974 26.1557 40.7267 26.054C40.4009 25.9205 40.0755 25.8207 39.7505 25.7547C39.5759 25.7195 39.5693 25.6641 39.7307 25.5885C40.2876 25.3295 40.8143 25.0196 41.311 24.6586C42.1327 24.0622 42.7196 23.2918 43.0718 22.3476C43.1928 22.0219 43.1202 21.7347 42.7097 21.7611C42.6895 21.7625 42.6697 21.7698 42.6525 21.782C41.2323 22.8017 39.7833 22.7295 38.2153 22.6514L38.2151 22.6514L38.2149 22.6513L38.2147 22.6513C37.9689 22.6391 37.7201 22.6267 37.4681 22.6183C37.2569 22.6117 37.0518 22.615 36.853 22.6282C36.6813 22.6392 36.66 22.5879 36.7892 22.4742C37.0078 22.2812 37.2062 22.0688 37.3845 21.837C38.0943 20.9093 38.1295 19.5282 37.6222 18.5642C37.4307 18.201 37.0973 18.3826 36.9421 18.6665C36.4183 19.621 35.5995 20.1148 34.4859 20.1478C34.3582 20.1514 34.3248 20.0975 34.3857 19.986C34.8024 19.2179 35.2166 18.4442 35.6281 17.6651C36.2532 16.4799 36.5878 15.243 36.1542 13.9367C35.9759 13.4008 35.5709 13.6902 35.4367 14.0654C34.9828 15.3437 33.9627 16.0804 32.9215 16.8325L32.9214 16.8326L32.9213 16.8327L32.9212 16.8328L32.9211 16.8328L32.9209 16.8329C32.8212 16.905 32.7213 16.9771 32.6217 17.0499C32.271 17.306 31.9346 17.5998 31.6125 17.9314C31.4665 18.0818 31.4038 18.0528 31.4243 17.8445C31.5014 17.0609 31.4639 16.2671 31.3121 15.463C31.1749 14.7338 30.8132 14.0299 30.227 13.3512C29.9156 12.9903 29.5711 13.2049 29.5964 13.6506C29.6573 14.7444 29.3855 15.7525 28.781 16.6747C28.2997 17.4083 27.8408 18.1559 27.4043 18.9174C27.3273 19.0524 27.273 19.0436 27.2414 18.891C26.9172 17.3019 25.926 16.4186 24.2679 16.2411C24.0097 16.2139 23.8879 16.3504 23.9026 16.6505C23.9033 16.6706 23.9098 16.6901 23.9213 16.7066C24.586 17.6955 24.6392 18.7076 24.0809 19.7428C24.02 19.855 23.9561 19.8569 23.8894 19.7483C23.4661 19.0557 23.0369 18.3562 22.6018 17.6497C21.8722 16.4667 20.9412 15.4785 19.5348 15.189C19.0484 15.0889 18.9901 15.5335 19.263 15.8515C20.1563 16.8889 20.2953 18.1566 20.4362 19.4413C20.4654 19.7075 20.4946 19.9744 20.5307 20.2402C20.5755 20.5726 20.6474 20.8869 20.7464 21.1833C20.8022 21.3506 20.7578 21.384 20.6133 21.2835C20.1965 20.9951 19.7619 20.7358 19.3092 20.5054C18.3151 19.9992 17.2689 19.8334 16.1706 20.008C15.5852 20.1005 15.5566 20.5098 16.0661 20.7651C17.5085 21.4863 18.1841 22.8009 18.8737 24.1428C19.0006 24.3899 19.128 24.6378 19.2608 24.8831C19.3297 25.0108 19.4057 25.1344 19.4886 25.254C19.5883 25.3978 19.555 25.4422 19.3884 25.3871C17.9417 24.911 16.7502 25.2353 15.8141 26.36C15.7954 26.3825 15.7763 26.4051 15.7573 26.4275C15.5453 26.6778 15.3394 26.9209 15.7635 27.1501C15.7814 27.1602 15.8017 27.1647 15.8218 27.1633C17.0228 27.0951 17.9197 27.5543 18.5125 28.5411C18.5224 28.5574 18.528 28.5761 18.5285 28.5952C18.5291 28.6144 18.5246 28.6333 18.5156 28.6502C18.5066 28.6671 18.4934 28.6813 18.4772 28.6915C18.461 28.7017 18.4424 28.7075 18.4233 28.7084C17.6897 28.7414 16.956 28.763 16.2224 28.7733C14.7708 28.7953 13.3996 29.0539 12.3641 30.1511C12.013 30.5231 12.2342 30.8697 12.725 30.7795C14.0975 30.5235 15.2419 31.0305 16.4359 31.5594C16.6023 31.6331 16.7697 31.7072 16.9388 31.7798C17.2975 31.9331 17.6666 32.0564 18.0458 32.1496C18.252 32.2009 18.2586 32.2702 18.0657 32.3575C17.6071 32.5644 17.1592 32.8165 16.722 33.1136C15.8093 33.7335 15.1626 34.557 14.7818 35.5841C14.5849 36.1135 14.981 36.2774 15.3948 36.0045C16.306 35.4022 17.2656 35.1392 18.2736 35.2155ZM30.7178 22.4181C30.2564 22.2948 29.774 22.2163 29.2707 22.1826C28.9384 22.1605 28.5139 22.1778 27.9974 22.2343C27.9725 22.237 27.9474 22.2311 27.9264 22.2174C27.9053 22.2038 27.8896 22.1833 27.8819 22.1594C27.2582 20.2727 28.1434 18.898 29.0654 17.466C29.2416 17.1925 29.4191 16.9168 29.5876 16.6351C29.9075 16.0995 30.1173 15.5265 30.2171 14.9161C30.2523 14.7041 30.3088 14.6986 30.3866 14.8996C30.7101 15.7352 30.8367 16.605 30.7662 17.5088C30.7134 18.1948 30.6639 18.8819 30.6177 19.57C30.5568 20.4878 30.6353 21.3928 30.8532 22.2849C30.8579 22.3035 30.8576 22.323 30.8524 22.3415C30.8473 22.36 30.8373 22.3768 30.8237 22.3903C30.81 22.4037 30.793 22.4134 30.7744 22.4182C30.7559 22.4231 30.7364 22.4231 30.7178 22.4181ZM32.8131 23.403C32.4911 23.1748 32.1503 22.9782 31.7908 22.8131C31.7776 22.8072 31.7657 22.7987 31.7558 22.7881C31.746 22.7775 31.7384 22.7651 31.7336 22.7515C31.3957 21.8414 31.1294 20.5428 31.4276 19.6041C31.7894 18.4647 32.7978 17.7474 33.7204 17.0912C34.1647 16.7752 34.5891 16.4734 34.9117 16.1453C35.1223 15.9319 35.3097 15.7147 35.4741 15.4939C35.6223 15.2958 35.6747 15.3185 35.6314 15.5621C35.5045 16.2789 35.2639 16.9568 34.9095 17.5958C34.8034 17.787 34.693 17.9816 34.581 18.1789L34.5804 18.18L34.5802 18.1804C33.9046 19.3706 33.1724 20.6607 32.9969 21.9063C32.9301 22.3744 32.9265 22.8384 32.9859 23.2984C33.0072 23.4642 32.9496 23.4991 32.8131 23.403ZM23.7441 23.1092C23.2878 22.9456 22.8557 22.7284 22.4478 22.4577C21.3387 21.7217 21.1788 20.1898 21.0379 18.84V18.84C20.9847 18.3308 20.9343 17.8476 20.8367 17.4428C20.7618 17.1339 20.6598 16.8357 20.5307 16.5481C20.4265 16.3155 20.472 16.2807 20.6672 16.4436C20.9445 16.6747 21.1998 16.9267 21.4331 17.1996C21.6187 17.4168 21.8561 17.7619 22.1451 18.2351C22.6337 19.0348 23.1308 19.8294 23.6363 20.6188C23.6457 20.6333 23.6515 20.6501 23.653 20.6675C23.6546 20.685 23.6518 20.7026 23.6451 20.7189C23.3208 21.5267 23.3883 22.2798 23.8476 22.9782C23.9444 23.1249 23.9099 23.1686 23.7441 23.1092ZM25.1538 17.182C25.3233 17.2627 25.4869 17.3694 25.6446 17.5022C26.5286 18.2451 26.6846 19.3789 26.8411 20.5167L26.8411 20.5168C26.9093 21.0122 26.9775 21.5084 27.1061 21.9735C27.1361 22.082 27.1644 22.1906 27.1908 22.2992C27.1973 22.3271 27.193 22.3563 27.1786 22.3809C27.1643 22.4055 27.141 22.4236 27.1138 22.4313C26.4183 22.6271 25.7694 22.9243 25.167 23.3226C25.1464 23.3365 25.1217 23.3429 25.0969 23.3409C25.0721 23.3389 25.0487 23.3286 25.0306 23.3116C23.7779 22.1336 24.1811 21.2199 24.6535 20.1493C24.78 19.8626 24.9114 19.5648 25.0174 19.2476C25.2353 18.5968 25.2305 17.9542 25.0031 17.3195C24.9429 17.1523 24.9932 17.1064 25.1538 17.182ZM35.1637 20.7618C35.846 20.6643 36.4777 20.3235 37.0588 19.7395C37.1673 19.6302 37.2297 19.6526 37.2458 19.8066C37.2833 20.1668 37.229 20.5417 37.083 20.9313C36.9546 21.2761 36.6718 21.6441 36.2345 22.0351C35.5309 22.6631 34.8105 23.2728 34.0732 23.8641C34.0211 23.9059 33.9818 23.9569 33.9554 24.017C33.9521 24.0252 33.9467 24.0325 33.9398 24.0382C33.9329 24.044 33.9247 24.048 33.9158 24.0501C33.8769 24.0581 33.8512 24.0398 33.8388 23.995C33.5527 22.9665 33.5978 21.9559 33.9741 20.9632C33.9814 20.9438 33.9939 20.9268 34.0103 20.9142C34.0266 20.9015 34.0461 20.8937 34.0666 20.8917C34.4356 20.8572 34.8013 20.8139 35.1637 20.7618ZM18.8569 22.6646C18.5018 21.9566 18.0231 21.3385 17.4208 20.8103C17.2667 20.6753 17.2909 20.6243 17.4934 20.6573C18.3767 20.8026 19.2105 21.1463 19.9948 21.6884C20.9177 22.3274 21.5886 22.7757 22.0076 23.0332C22.6678 23.4397 23.371 23.7456 24.1172 23.951C24.1357 23.9562 24.1525 23.9661 24.166 23.9798C24.1795 23.9934 24.1892 24.0104 24.1941 24.029C24.199 24.0476 24.199 24.0671 24.194 24.0857C24.189 24.1043 24.1792 24.1212 24.1656 24.1348C23.5097 24.7892 23.0042 25.5463 22.6491 26.4062C22.6392 26.4301 22.6212 26.4497 22.5983 26.4618C22.5754 26.4738 22.549 26.4775 22.5237 26.4722C20.535 26.0488 19.8258 24.6181 19.0336 23.0196C18.9753 22.902 18.9166 22.7836 18.8569 22.6646ZM33.23 24.6589C34.3702 25.7991 35.0108 27.3456 35.0108 28.9582C35.0108 30.5707 34.3702 32.1172 33.23 33.2575C32.0897 34.3977 30.5432 35.0383 28.9307 35.0383C27.3181 35.0383 25.7716 34.3977 24.6314 33.2575C23.4911 32.1172 22.8505 30.5707 22.8505 28.9582C22.8505 27.3456 23.4911 25.7991 24.6314 24.6589C25.7716 23.5186 27.3181 22.8781 28.9307 22.8781C30.5432 22.8781 32.0897 23.5186 33.23 24.6589ZM34.2867 24.652C35.6358 23.1224 37.2833 23.228 39.2718 23.37C40.1236 23.4309 40.9427 23.3307 41.7292 23.0695C41.9229 23.005 41.9548 23.0516 41.8249 23.2093C41.3026 23.8432 40.6713 24.345 39.931 24.7147C39.1607 25.0992 38.3933 25.4895 37.6288 25.8857C36.9047 26.2613 36.2521 26.729 35.6711 27.2888C35.6573 27.302 35.6403 27.3115 35.6217 27.3162C35.6032 27.3209 35.5837 27.3207 35.5653 27.3156C35.5468 27.3105 35.53 27.3007 35.5165 27.2871C35.5031 27.2735 35.4934 27.2566 35.4884 27.2381C35.2477 26.3438 34.8453 25.5284 34.2812 24.7918C34.2656 24.7713 34.2577 24.7462 34.2587 24.7207C34.2597 24.6951 34.2696 24.6709 34.2867 24.652ZM18.7458 27.6739C18.2872 27.0965 17.6688 26.715 16.8903 26.5294C16.7216 26.4891 16.7106 26.4223 16.8573 26.3291C17.5991 25.8581 18.3951 25.7719 19.2454 26.0705C20.2615 26.4271 21.2768 26.7888 22.2915 27.1556C22.3171 27.1648 22.3384 27.1833 22.3512 27.2075C22.364 27.2317 22.3674 27.2599 22.3608 27.2866C22.1847 27.9806 22.1194 28.686 22.1649 29.4028C22.1665 29.4268 22.1601 29.4507 22.1468 29.4708C22.1335 29.4909 22.114 29.506 22.0912 29.5139C21.3385 29.7773 20.6701 29.7116 20.0861 29.3169C19.7171 29.0683 19.3903 28.5917 19.0989 28.1667C18.975 27.9859 18.8574 27.8145 18.7458 27.6739ZM42.1518 27.4065C42.6477 27.6244 43.1899 27.784 43.7783 27.8852C44.0527 27.9329 44.0589 28.0037 43.797 28.0976C43.147 28.3302 42.4247 28.4454 41.6301 28.4432C40.6096 28.441 39.5928 28.4956 38.5796 28.6071C37.5811 28.7172 36.6751 29.0605 35.8614 29.6372C35.7433 29.7208 35.6854 29.6904 35.6876 29.5458L35.7041 28.3243C35.7041 28.2995 35.7131 28.2753 35.7294 28.2561C36.3369 27.5232 36.9623 26.9979 37.6057 26.6802C39.0155 25.9847 40.4076 26.6167 41.706 27.2062C41.8559 27.2742 42.0045 27.3417 42.1518 27.4065ZM38.4542 31.7743C37.5995 31.4816 36.711 31.1661 35.7888 30.8279C35.7714 30.8215 35.7559 30.8109 35.7437 30.7969C35.7315 30.7829 35.723 30.7661 35.7191 30.748C35.7151 30.7299 35.7158 30.7111 35.7211 30.6933C35.7263 30.6755 35.736 30.6594 35.7492 30.6463C36.4777 29.9317 37.3522 29.4915 38.3727 29.3257C38.3929 29.3225 38.4135 29.325 38.4324 29.333C38.4513 29.3409 38.4676 29.3541 38.4795 29.3709C38.6658 29.6306 38.8496 29.8855 39.0308 30.1357C39.5194 30.8099 40.1676 31.2226 40.9754 31.3737C41.147 31.406 41.1617 31.472 41.0194 31.5718C40.6137 31.8572 40.157 32.0087 39.6493 32.0263C39.372 32.0358 38.9736 31.9518 38.4542 31.7743ZM15.9111 30.6088L15.8097 30.5616C15.2323 30.2938 14.6303 30.1111 14.0038 30.0135C13.7734 29.9776 13.7679 29.9211 13.9873 29.8441C14.3703 29.7083 14.7609 29.6089 15.1593 29.5458C15.4271 29.504 15.8944 29.4765 16.5613 29.4633C17.3925 29.4479 18.223 29.4145 19.0528 29.3632C19.0707 29.3618 19.0888 29.365 19.1053 29.3725C19.1218 29.38 19.1363 29.3915 19.1474 29.4061C19.6683 30.0913 20.3609 30.4112 21.2251 30.3657C21.4159 30.3554 21.4349 30.4079 21.2823 30.5231C21.0623 30.6903 20.837 30.8499 20.6067 31.0018C19.0102 32.0514 17.4326 31.317 15.9111 30.6088ZM19.3882 34.5656C18.2228 34.4979 16.9848 34.4261 15.9836 34.9239C15.981 34.9252 15.9784 34.9261 15.9756 34.9268L15.972 34.9275L15.9682 34.9277C15.9629 34.9279 15.9576 34.9268 15.9526 34.9246C15.9477 34.9224 15.9433 34.9191 15.9397 34.915C15.9378 34.9129 15.9362 34.9106 15.9349 34.9081C15.9336 34.9058 15.9326 34.9033 15.9318 34.9008C15.9296 34.8897 15.9384 34.8292 15.9472 34.8171C16.823 33.6866 18.0996 33.0759 19.3592 32.4732L19.3592 32.4732L19.3594 32.4731L19.3595 32.4731L19.3596 32.473L19.3597 32.473L19.3598 32.4729L19.3599 32.4729L19.36 32.4728L19.3601 32.4728L19.3602 32.4727L19.3603 32.4727L19.3604 32.4726L19.3605 32.4726C19.5646 32.375 19.7681 32.2775 19.9695 32.1782C20.7897 31.7732 21.5303 31.2552 22.1913 30.6243C22.205 30.6111 22.2219 30.6017 22.2403 30.5971C22.2587 30.5925 22.2781 30.5928 22.2964 30.5981C22.3148 30.6033 22.3315 30.6132 22.3449 30.6269C22.3583 30.6406 22.368 30.6575 22.3729 30.676C22.6143 31.5652 23.0134 32.377 23.5702 33.1114C23.5852 33.1314 23.593 33.1559 23.5922 33.1809C23.5914 33.2059 23.5821 33.2299 23.5658 33.2489C22.797 34.1455 21.8117 34.5992 20.61 34.6102C20.2221 34.614 19.81 34.5901 19.3885 34.5656H19.3885H19.3884H19.3884H19.3884H19.3884H19.3884H19.3883H19.3883H19.3883H19.3883H19.3882H19.3882ZM36.4766 35.2815C35.6586 34.7019 34.7467 34.2621 33.7408 33.962C33.7227 33.9565 33.7063 33.9464 33.6932 33.9327C33.6801 33.919 33.6708 33.9021 33.6662 33.8838C33.6615 33.8654 33.6617 33.8461 33.6667 33.8278C33.6717 33.8095 33.6813 33.7928 33.6946 33.7794C34.3512 33.1235 34.8578 32.3649 35.2144 31.5036C35.2244 31.4793 35.2426 31.4594 35.2658 31.4473C35.289 31.4352 35.3156 31.4318 35.3409 31.4376C37.3103 31.8918 37.9954 33.243 38.7823 34.7949L38.7824 34.7951C38.8762 34.9801 38.9714 35.1679 39.0704 35.3574C39.4182 36.0236 39.8727 36.6036 40.4339 37.0973C40.5843 37.2294 40.5605 37.2803 40.3624 37.2503C39.8232 37.1688 39.3012 37.0045 38.7964 36.7573C38.2865 36.5085 37.5133 36.0166 36.4766 35.2815ZM20.6221 38.1163C20.556 37.404 20.7725 36.7859 21.2713 36.262C21.7037 35.8081 22.1654 35.4261 22.6279 35.0435L22.6279 35.0435L22.628 35.0435L22.628 35.0435L22.628 35.0435L22.628 35.0434L22.6281 35.0434L22.6281 35.0434L22.6281 35.0434L22.6282 35.0433L22.6282 35.0433L22.6282 35.0433L22.6282 35.0433L22.6283 35.0432C22.9661 34.7638 23.3044 34.484 23.6319 34.1755C23.7111 34.1014 23.7947 34.0292 23.8828 33.9587C23.8972 33.9473 23.9142 33.9397 23.9323 33.9366C23.9504 33.9335 23.969 33.9349 23.9864 33.9409C24.0038 33.9468 24.0195 33.9569 24.0319 33.9704C24.0444 33.9839 24.0533 34.0004 24.0577 34.0182C24.3057 35.0145 24.2478 35.9965 23.8839 36.9641C23.8761 36.9847 23.8625 37.0024 23.8449 37.0151C23.8273 37.0279 23.8064 37.035 23.7848 37.0357C23.33 37.0518 22.8784 37.109 22.4301 37.2073C21.7743 37.3526 21.2361 37.6758 20.8157 38.1769C20.7028 38.3119 20.6382 38.2917 20.6221 38.1163ZM25.0493 34.5222L26.0925 35.1462C26.1145 35.1589 26.1313 35.1792 26.1398 35.2034C26.4777 36.141 26.7407 37.4241 26.4095 38.3783C26.0284 39.4762 25.0121 40.217 24.0557 40.914C23.7774 41.1168 23.5043 41.3159 23.2533 41.519C22.9158 41.7927 22.6275 42.0916 22.3883 42.4159C22.2409 42.6155 22.1884 42.5931 22.231 42.3488C22.2911 41.9959 22.381 41.6518 22.5006 41.3165C22.7707 40.5566 23.208 39.7874 23.6333 39.0394L23.6333 39.0394L23.6333 39.0392C23.8282 38.6965 24.0205 38.3581 24.1931 38.0272C24.7529 36.9531 24.9829 35.8193 24.8831 34.6256C24.8714 34.4833 24.9268 34.4488 25.0493 34.5222ZM32.6998 40.7157C32.5369 40.6592 32.3843 40.5708 32.242 40.4505C31.7233 40.0132 31.4009 39.4626 31.2747 38.7986C31.0736 37.7414 30.88 36.6762 30.6936 35.6029C30.689 35.5761 30.6945 35.5487 30.7089 35.5257C30.7233 35.5028 30.7457 35.486 30.7717 35.4785C31.4672 35.2782 32.1169 34.9785 32.7207 34.5794C32.7427 34.5651 32.7691 34.5591 32.7951 34.5625C32.8212 34.5659 32.8451 34.5786 32.8627 34.5981C34.0126 35.8681 33.7848 36.5801 33.0453 38.0811C32.6448 38.8933 32.5765 39.726 32.8406 40.5792C32.8832 40.7179 32.8362 40.7634 32.6998 40.7157ZM37.2447 41.5168C37.2374 41.5131 37.2304 41.5084 37.2238 41.5025C36.2174 40.575 35.5611 39.4874 34.8916 38.3777C34.6746 38.0181 34.4561 37.6561 34.2239 37.2965C34.2141 37.2816 34.2081 37.2646 34.2064 37.247C34.2046 37.2293 34.2073 37.2116 34.214 37.1952C34.5427 36.389 34.4737 35.634 34.0071 34.9305C33.9044 34.7757 33.9397 34.7324 34.1128 34.8006C34.3784 34.9048 34.6385 35.02 34.893 35.1462C36.4758 35.9361 36.6608 37.5045 36.8446 39.063C36.9481 39.9405 37.0512 40.8149 37.4032 41.5454C37.4304 41.6004 37.4271 41.6188 37.3933 41.6004L37.2447 41.5168ZM27.138 35.4972C27.6068 35.6153 28.0837 35.6938 28.5686 35.7327C28.8635 35.7562 29.296 35.7389 29.8661 35.681C29.8912 35.6785 29.9165 35.6847 29.9375 35.6985C29.9586 35.7124 29.9741 35.733 29.9816 35.7569C30.5974 37.7065 29.7107 39.0352 28.7266 40.51L28.7261 40.5108C28.6621 40.6067 28.5978 40.7031 28.5334 40.8004C28.0719 41.4981 27.7708 42.2285 27.6299 42.9914C27.5903 43.2027 27.5338 43.2075 27.4604 43.0058C27.1655 42.1995 27.0477 41.3638 27.1072 40.4989C27.1622 39.6992 27.2091 38.8988 27.248 38.0976C27.2884 37.262 27.2069 36.4396 27.0037 35.6304C26.9991 35.6119 26.9994 35.5925 27.0045 35.5741C27.0097 35.5558 27.0195 35.5391 27.033 35.5256C27.0465 35.5122 27.0633 35.5025 27.0817 35.4975C27.1001 35.4926 27.1195 35.4924 27.138 35.4972ZM9.44344 16.7473C9.3576 16.7833 9.27213 16.8177 9.18703 16.8508C8.82387 16.9916 8.33526 16.9729 8.53445 16.393C8.54027 16.3769 8.54973 16.3623 8.56212 16.3503C8.5745 16.3383 8.5895 16.3292 8.60598 16.3236C9.64113 15.9978 9.71266 15.5358 9.85483 14.6177L9.86932 14.5244C9.87216 14.5029 9.88177 14.4825 9.89684 14.466C10.1089 14.2342 10.3099 14.2434 10.4999 14.4935C10.5128 14.5108 10.5205 14.5311 10.5219 14.5519C10.5835 15.3915 10.7948 16.1167 11.7357 16.2961C11.7513 16.2992 11.766 16.3056 11.7789 16.3147C11.7918 16.3238 11.8026 16.3355 11.8106 16.3489C12.0923 16.831 11.6763 16.9993 11.29 16.8816C10.9951 16.7921 10.7336 16.6453 10.5054 16.4414C10.3976 16.346 10.3367 16.3699 10.3227 16.5129L10.1819 17.8918C10.1672 18.0356 10.2222 18.0708 10.3469 17.9975L10.7211 17.7785C10.7349 17.7702 10.7502 17.765 10.766 17.7633C10.7818 17.7616 10.7976 17.7634 10.8124 17.7686C11.6617 18.0552 10.6607 18.647 10.2422 18.8944C10.1819 18.9301 10.1337 18.9586 10.1048 18.978C10.0917 18.987 10.0806 18.9986 10.0722 19.0121C10.0639 19.0255 10.0585 19.0405 10.0564 19.0561C9.97277 19.7494 9.88693 20.4391 9.79889 21.125C9.76368 21.3994 9.62905 21.508 9.39502 21.4508C9.1962 21.4016 9.10816 21.2761 9.1309 21.0744L9.28937 19.6581C9.30331 19.5378 9.25893 19.5095 9.15622 19.5733L8.78646 19.8022C8.76313 19.8164 8.73496 19.8215 8.70722 19.8165C8.35947 19.7513 8.24906 19.5932 8.37598 19.3422C8.47161 19.1541 8.79043 18.9627 9.06356 18.7987L9.06357 18.7987L9.06357 18.7987L9.0636 18.7987L9.06367 18.7986C9.18025 18.7286 9.2885 18.6636 9.36751 18.606C9.37968 18.597 9.38987 18.5855 9.39744 18.5722C9.40502 18.559 9.40981 18.5443 9.41153 18.529L9.5953 16.8607C9.59736 16.8417 9.59442 16.8224 9.58678 16.8049C9.57913 16.7873 9.56705 16.7721 9.55172 16.7607C9.53639 16.7492 9.51834 16.742 9.49935 16.7396C9.48036 16.7373 9.46109 16.7399 9.44344 16.7473ZM50.2029 18.0965C49.8793 17.6798 49.4388 17.5088 48.8812 17.5837C48.7418 17.602 48.7044 17.5485 48.7689 17.423C48.9641 17.0474 49.0041 16.6523 48.8889 16.2378C48.7084 15.5896 47.9502 15.1813 47.3229 15.4598C46.8255 15.681 46.6582 16.2257 46.6318 16.7451C46.6098 17.182 46.9411 17.5364 47.3097 17.0609C47.3274 17.0377 47.3353 17.0085 47.3317 16.9795C47.2972 16.7081 47.3435 16.452 47.4704 16.2114C47.5848 15.995 47.7455 15.9594 47.9524 16.1046C49.1068 16.9201 46.9378 18.4321 46.2808 18.8613C45.7757 19.1915 46.1575 19.9112 46.6043 19.5568L46.6716 19.5035C47.3067 18.9998 48.7634 17.8444 49.5316 18.4035C49.8914 18.6654 49.9222 19.2102 49.3126 19.2223C49.2475 19.2238 49.1523 19.2029 49.0467 19.1797C48.6988 19.1032 48.2384 19.0019 48.3761 19.5997C48.3795 19.6152 48.3863 19.6298 48.396 19.6423C48.4057 19.6549 48.4181 19.6651 48.4322 19.6724C48.8438 19.8859 49.2359 19.9548 49.6086 19.8793C50.4912 19.7021 50.7234 18.7689 50.2029 18.0965ZM28.8074 24.0479C28.6328 23.7852 28.7259 23.6642 29.0869 23.6847C30.7882 23.7808 32.1613 24.5089 33.206 25.8691C33.2196 25.8873 33.2274 25.9092 33.2284 25.9318C33.2294 25.9544 33.2235 25.9766 33.2115 25.9957C33.086 26.193 32.9639 26.2169 32.845 26.0672C31.9742 24.9748 30.8473 24.3351 29.4644 24.148C29.412 24.1409 29.3461 24.139 29.274 24.137C29.1444 24.1333 28.9949 24.129 28.869 24.093C28.8435 24.0858 28.8216 24.0698 28.8074 24.0479ZM49.5007 30.2524C50.1221 30.683 50.8048 30.6592 51.5487 30.1808C51.5622 30.1722 51.5774 30.1667 51.5931 30.1646C51.6089 30.1625 51.625 30.1639 51.6401 30.1687C52.3213 30.3745 52.1848 30.9864 51.9614 31.4915C51.8844 31.6654 51.9324 31.7908 52.1056 31.8679C52.7747 32.1694 52.8671 30.8785 52.8264 30.5396C52.7765 30.1273 52.5322 29.8125 52.0935 29.5954C52.0693 29.5837 52.0503 29.5634 52.0402 29.5385C52.03 29.5135 52.0294 29.4856 52.0384 29.46C52.158 29.124 52.1782 28.7792 52.099 28.4256C52.0932 28.3995 52.0969 28.3722 52.1094 28.3488C52.1219 28.3253 52.1425 28.3073 52.1672 28.2979C53.0289 27.9755 53.2093 27.1083 52.8836 26.3104C52.7361 25.9484 52.4181 25.7162 52.1518 26.1795C52.1439 26.193 52.139 26.2081 52.1374 26.2236C52.1359 26.2392 52.1378 26.255 52.143 26.2697C52.3301 26.82 52.5821 27.576 51.7512 27.6816C51.7347 27.6837 51.7181 27.682 51.7024 27.6767C51.6868 27.6713 51.6726 27.6625 51.661 27.6508C49.9002 25.9077 47.4429 28.825 49.5007 30.2524ZM51.1568 28.1297C51.3464 28.3194 51.453 28.5766 51.453 28.8448C51.453 29.1131 51.3464 29.3703 51.1568 29.56C50.9671 29.7496 50.7099 29.8562 50.4416 29.8562C50.3088 29.8562 50.1773 29.83 50.0546 29.7792C49.9319 29.7284 49.8204 29.6539 49.7265 29.56C49.6326 29.4661 49.5581 29.3546 49.5073 29.2319C49.4565 29.1092 49.4303 28.9777 49.4303 28.8448C49.4303 28.712 49.4565 28.5805 49.5073 28.4578C49.5581 28.3351 49.6326 28.2236 49.7265 28.1297C49.8204 28.0358 49.9319 27.9613 50.0546 27.9105C50.1773 27.8597 50.3088 27.8335 50.4416 27.8335C50.7099 27.8335 50.9671 27.9401 51.1568 28.1297ZM6.00662 30.3459C6.01723 30.3593 6.03067 30.3701 6.04591 30.3776C6.06116 30.385 6.07783 30.3888 6.09466 30.3888L8.32973 30.369C8.3494 30.3687 8.36877 30.3737 8.3858 30.3834C8.40283 30.393 8.41691 30.4071 8.42657 30.424C8.70059 30.9049 8.39135 31.0755 7.97427 31.0634C7.20687 31.0399 6.57924 31.0608 6.09136 31.1261C5.60165 31.1911 5.81294 32.0252 6.50844 31.8558C6.52301 31.8519 6.53826 31.8512 6.55323 31.8537C6.5682 31.8562 6.58256 31.8617 6.59538 31.8701C7.22265 32.2794 6.4072 32.6855 6.00112 32.5535C5.17246 32.2827 4.91715 31.5014 5.36945 30.7575C5.38024 30.7397 5.38576 30.7193 5.38537 30.6987C5.38498 30.678 5.37869 30.6579 5.36725 30.6408C5.0349 30.1331 5.06938 29.6629 5.47069 29.23C5.48563 29.2141 5.4955 29.1941 5.49903 29.1725C5.50255 29.1509 5.49959 29.1288 5.4905 29.109C4.75952 27.5269 6.88893 27.6458 7.83491 27.6986C7.91147 27.7028 7.98028 27.7067 8.0392 27.7092C8.23802 27.7172 8.38438 27.6512 8.47829 27.5111C8.48843 27.4958 8.49464 27.4783 8.49637 27.46C8.4981 27.4418 8.49529 27.4234 8.4882 27.4065C8.29561 26.963 7.72116 26.711 7.29308 26.5581C7.27915 26.5532 7.2664 26.5456 7.25562 26.5357C7.24483 26.5259 7.23623 26.514 7.23035 26.5008C6.98385 25.977 7.42073 25.8571 7.8015 26.0221C8.45408 26.305 9.53695 26.9454 9.08355 27.8423C8.76143 28.4829 7.8285 28.4428 7.09712 28.4114H7.09706H7.097H7.09695H7.09689H7.09684H7.09678H7.09672C6.93874 28.4046 6.79017 28.3982 6.6592 28.3992C6.4127 28.4003 5.63466 28.4179 6.27954 28.8955C6.29815 28.909 6.32088 28.9164 6.34447 28.9164H8.2648C8.28838 28.9164 8.31112 28.9237 8.32973 28.9373C8.62539 29.153 8.62025 29.3709 8.31432 29.591C8.29432 29.6053 8.27073 29.6126 8.24719 29.6119C7.64193 29.5943 7.03887 29.5994 6.43801 29.6273C5.98461 29.6482 5.59835 29.8221 6.00662 30.3459ZM9.56757 36.5188L9.5753 36.5146C9.74088 36.4247 9.94799 36.486 10.0379 36.6516L12.4628 41.1178C12.5527 41.2833 12.4914 41.4905 12.3258 41.5804L12.3181 41.5846C12.1525 41.6745 11.9454 41.6131 11.8555 41.4475L9.43054 36.9814C9.34064 36.8158 9.40199 36.6087 9.56757 36.5188ZM8.58067 38.5059L8.12177 37.5826C8.11314 37.5654 8.10934 37.546 8.11077 37.5265C8.13498 37.1788 8.31912 37.068 8.66321 37.1942C8.68943 37.2041 8.71104 37.2238 8.72373 37.2492L9.40383 38.616C9.50801 38.8251 9.44858 38.9758 9.22555 39.0683C8.04694 39.5591 8.77656 41.1603 9.88583 40.5143C10.1411 40.3657 10.3381 40.3195 10.5021 40.5979C10.7486 41.0146 10.9889 41.4358 11.2229 41.8613C11.2302 41.8742 11.2349 41.8883 11.2366 41.9029C11.2383 41.9175 11.237 41.9321 11.2328 41.946C10.9533 42.8783 10.3893 41.8226 10.1747 41.421L10.1746 41.4209C10.1476 41.3703 10.1261 41.3301 10.1114 41.3055C10.0988 41.2845 10.0795 41.2682 10.0566 41.2592C10.0337 41.2502 10.0085 41.2491 9.98488 41.256C8.23402 41.7798 7.17977 39.7814 8.55206 38.6402C8.57117 38.6242 8.58438 38.6023 8.58957 38.578C8.59476 38.5537 8.59162 38.5283 8.58067 38.5059ZM45.3806 40.6705C45.7724 40.6324 46.1359 40.5124 46.4712 40.3107C46.4885 40.3004 46.5082 40.295 46.5282 40.295C46.5481 40.295 46.5676 40.3004 46.5845 40.3107L48.2495 41.3088C48.2668 41.3191 48.2808 41.334 48.2901 41.3519C48.2994 41.3697 48.3037 41.3899 48.3024 41.4101C48.2818 41.7461 48.3321 42.0733 48.4531 42.3917C48.4625 42.4146 48.4787 42.4339 48.4994 42.4467C48.7781 42.6125 48.9729 42.5454 49.0837 42.2453C49.0916 42.2245 49.0931 42.2019 49.0881 42.1804C48.8357 41.154 49.153 40.4215 50.04 39.9827C50.1492 39.9291 50.2776 39.8883 50.408 39.8467C50.4944 39.8192 50.5818 39.7914 50.6651 39.7594C50.6885 39.7501 50.708 39.7334 50.7201 39.712C50.8778 39.4428 50.843 39.2663 50.6156 39.1827C50.2623 39.0528 49.645 39.3808 49.3555 39.5778C49.3381 39.5896 49.3177 39.5963 49.2966 39.5969C49.2755 39.5974 49.2547 39.592 49.2367 39.5811L47.663 38.6457C47.645 38.6352 47.6304 38.6196 47.621 38.6008C47.6116 38.5821 47.6079 38.561 47.6102 38.54C47.6388 38.2583 47.6344 36.612 46.8761 37.4087C46.8639 37.4213 46.855 37.4368 46.85 37.4539C46.845 37.4709 46.8442 37.489 46.8475 37.5067C47.1315 38.9013 46.5988 39.7388 45.2496 40.0191C45.2235 40.024 45.1999 40.0385 45.1836 40.0598C44.9973 40.307 45.042 40.5062 45.3179 40.6573C45.3372 40.6681 45.3591 40.6727 45.3806 40.6705ZM48.7573 40.133C48.7564 40.1388 48.7544 40.1445 48.7513 40.1495L48.4869 40.5915C48.4807 40.6017 48.4707 40.6091 48.4591 40.612C48.4475 40.615 48.4352 40.6131 48.425 40.607L47.1294 39.8316C47.1243 39.8286 47.1199 39.8246 47.1164 39.8198C47.1128 39.8151 47.1103 39.8097 47.1088 39.8039C47.1074 39.7982 47.1071 39.7922 47.108 39.7863L47.1087 39.7823L47.1095 39.7796C47.1105 39.7762 47.112 39.7729 47.1139 39.7697L47.3784 39.3278C47.3845 39.3176 47.3945 39.3102 47.4061 39.3072C47.4177 39.3043 47.43 39.3061 47.4402 39.3123L48.7358 40.0877C48.7409 40.0907 48.7453 40.0947 48.7489 40.0995C48.7524 40.1042 48.7549 40.1096 48.7564 40.1154C48.7578 40.1211 48.7581 40.1271 48.7573 40.133ZM40.9897 47.1226C41.0117 47.1432 41.0374 47.1608 41.0667 47.1754C41.6742 47.4858 41.9878 46.1982 40.9952 46.0959C39.9101 45.9825 38.7822 46.7364 38.1318 47.5639C38.0085 47.7202 37.8636 47.7437 37.6971 47.6343C37.4792 47.492 37.47 47.2972 37.6696 47.05C38.5357 45.9748 40.9908 44.4782 42.0913 46.0111C42.8605 47.083 41.6907 48.4179 40.5858 47.6839C39.8375 47.1875 40.2678 46.0243 41.1581 46.2631C41.5433 46.3677 41.5884 46.7936 41.1625 46.9311C41.1485 46.9363 41.1339 46.9381 41.1185 46.9366L41.0745 46.9322C40.8573 46.911 40.829 46.9744 40.9897 47.1226ZM17.7179 48.7634C17.9454 49.0752 18.252 49.2513 18.6379 49.2916C18.6565 49.2937 18.6743 49.3003 18.6897 49.3109C18.7051 49.3215 18.7175 49.3356 18.726 49.3522C18.9615 49.8364 19.5634 49.8562 20.0069 49.6922C20.3855 49.5514 20.457 49.1475 20.019 48.9956C19.9989 48.9892 19.9772 48.9884 19.9563 48.9934L19.4831 49.109C19.4656 49.1133 19.4474 49.1133 19.4299 49.1089C19.4125 49.1045 19.3964 49.0959 19.383 49.0838C19.3696 49.0718 19.3594 49.0566 19.3533 49.0397C19.3471 49.0228 19.3452 49.0046 19.3477 48.9868C19.4326 48.396 19.7606 48.0212 20.1334 47.5952L20.205 47.5133C20.222 47.4942 20.2314 47.4691 20.2314 47.4428C20.2358 47.1406 20.0873 47.0034 19.7857 47.0313C19.7628 47.0334 19.7412 47.0427 19.7241 47.0577C19.2656 47.4538 18.9384 47.9384 18.7425 48.5114C18.7352 48.5337 18.7209 48.553 18.7019 48.5665C18.6828 48.5799 18.66 48.5869 18.6368 48.5862C18.3199 48.5796 18.2825 48.3705 18.4399 48.1306C18.7076 47.7235 18.9637 47.3104 19.208 46.8915C19.398 46.5665 19.2887 46.3688 18.88 46.2984C18.8588 46.2948 18.837 46.2976 18.8172 46.3064C18.7975 46.3152 18.7807 46.3296 18.7689 46.3479L17.7344 47.9502C17.7229 47.9677 17.7067 47.9816 17.6879 47.9903C17.669 47.9991 17.6482 48.0023 17.6277 47.9997C17.4898 47.9821 17.3852 47.9175 17.3141 47.806C17.3026 47.7879 17.2965 47.7669 17.2965 47.7457C17.2965 47.7244 17.3026 47.7037 17.3141 47.6861C17.5797 47.2803 17.843 46.8735 18.1042 46.4656C18.321 46.1256 18.4101 45.7866 17.8533 45.7118C17.8328 45.7091 17.8119 45.7121 17.7931 45.7205C17.7743 45.7288 17.7582 45.7422 17.7466 45.7591C17.4377 46.2213 17.1332 46.685 16.8332 47.1501C16.2499 48.0558 16.8695 48.518 17.6563 48.7216C17.6812 48.728 17.703 48.7428 17.7179 48.7634ZM42.5711 48.3541C41.8877 49.4028 39.5624 50.8136 38.3353 49.7638C37.5452 49.087 37.7213 47.8302 38.803 47.6289C40.0433 47.3989 40.5572 49.2543 39.1629 49.2565C38.5466 49.2565 38.6193 48.4729 39.1915 48.5786C39.2086 48.5816 39.2261 48.5806 39.2428 48.5756C39.2594 48.5707 39.2746 48.5619 39.2872 48.55L39.3126 48.5269C39.3173 48.5221 39.321 48.5164 39.3234 48.5101C39.3247 48.5066 39.3255 48.5031 39.326 48.4994C39.3263 48.4964 39.3264 48.4934 39.3262 48.4904C39.3259 48.4876 39.3255 48.4849 39.3248 48.4823C39.3238 48.4785 39.3223 48.4748 39.3204 48.4713C39.3193 48.4694 39.3181 48.4676 39.3168 48.4658C39.314 48.4622 39.3107 48.4591 39.3071 48.4564C38.3298 47.7862 38.156 49.7198 39.6999 49.4006C40.6089 49.2128 41.4141 48.7059 42.1155 47.8798C42.1284 47.8646 42.1451 47.8532 42.1639 47.8468C42.5314 47.7224 42.7768 48.0393 42.5711 48.3541ZM27.3449 49.4589C27.1468 50.0367 27.9183 50.2502 28.0019 49.6526C28.0054 49.627 28.0183 49.6032 28.0382 49.5855C28.2715 49.3815 28.5426 49.3144 28.8515 49.3841C28.8667 49.3876 28.8811 49.3943 28.8936 49.4036C28.9061 49.413 28.9165 49.4249 28.9241 49.4385C28.9317 49.4521 28.9363 49.4671 28.9376 49.4826C28.9389 49.4981 28.9369 49.5136 28.9318 49.5283C28.8685 49.7079 28.7938 49.8832 28.7195 50.0575C28.4978 50.5774 28.2799 51.0888 28.3805 51.6797C28.6303 53.1411 30.6837 53.1851 30.8587 51.6049C30.8816 51.3976 30.8242 51.1108 30.765 50.8147C30.6675 50.3278 30.565 49.8157 30.8059 49.5899C30.8185 49.5782 30.8336 49.5695 30.8501 49.5647C30.8666 49.5599 30.884 49.559 30.9009 49.5621C30.9178 49.5652 30.9337 49.5722 30.9474 49.5826C30.9611 49.5929 30.9722 49.6064 30.9798 49.6218C31.1129 49.8969 31.4805 50.5671 31.782 49.9112C31.7914 49.8919 31.7944 49.8699 31.7908 49.8485C31.5916 48.4971 29.8903 48.6897 29.9365 50.0466C29.9441 50.2663 29.9946 50.4769 30.0456 50.6897C30.1271 51.0302 30.2101 51.3766 30.1214 51.7754C30.0723 51.997 29.9343 52.1015 29.7076 52.0891C28.689 52.0322 29.0738 51.0598 29.3798 50.2865C29.5002 49.9821 29.6085 49.7085 29.6141 49.5338C29.6537 48.3034 27.6805 48.4817 27.3449 49.4589Z" fill="white"/>
<circle cx="29" cy="29" r="28.5" fill="url(#paint0_linear_983_46)" fill-opacity="0.5" stroke="url(#paint1_linear_983_46)"/>
<path d="M71.9967 36V21.88H74.2367L79.7967 30.54H78.6567L84.1967 21.88H86.4567V36H83.3167V27.18L83.8767 27.32L80.2567 32.96H78.1767L74.5767 27.32L75.1167 27.18V36H71.9967ZM91.8847 36.04L87.8847 26.28H91.1847L93.7247 34.02H92.5047L95.1047 26.28H98.4047L94.2447 36.04H91.8847ZM89.3847 40.1L92.3047 33.8L94.2447 36.04L92.5247 40.1H89.3847ZM102.248 30.86V28.42H105.288C105.675 28.42 106.028 28.34 106.348 28.18C106.668 28.02 106.922 27.7867 107.108 27.48C107.295 27.1733 107.388 26.8 107.388 26.36C107.388 25.9333 107.295 25.5667 107.108 25.26C106.922 24.9533 106.668 24.72 106.348 24.56C106.028 24.4 105.675 24.32 105.288 24.32H102.248V21.88H105.748C106.642 21.88 107.448 22.06 108.168 22.42C108.888 22.78 109.455 23.3 109.868 23.98C110.295 24.6467 110.508 25.44 110.508 26.36C110.508 27.28 110.295 28.08 109.868 28.76C109.455 29.4267 108.888 29.9467 108.168 30.32C107.448 30.68 106.642 30.86 105.748 30.86H102.248ZM99.8483 36V21.88H102.988V36H99.8483ZM115.777 36.2C114.883 36.2 114.083 35.98 113.377 35.54C112.683 35.1 112.13 34.5 111.717 33.74C111.317 32.98 111.117 32.1133 111.117 31.14C111.117 30.1667 111.317 29.3 111.717 28.54C112.13 27.78 112.683 27.18 113.377 26.74C114.083 26.3 114.883 26.08 115.777 26.08C116.43 26.08 117.017 26.2067 117.537 26.46C118.07 26.7133 118.503 27.0667 118.837 27.52C119.17 27.96 119.357 28.4667 119.397 29.04V33.24C119.357 33.8133 119.17 34.3267 118.837 34.78C118.517 35.22 118.09 35.5667 117.557 35.82C117.023 36.0733 116.43 36.2 115.777 36.2ZM116.397 33.44C117.05 33.44 117.577 33.2267 117.977 32.8C118.377 32.36 118.577 31.8067 118.577 31.14C118.577 30.6867 118.483 30.2867 118.297 29.94C118.123 29.5933 117.87 29.3267 117.537 29.14C117.217 28.94 116.843 28.84 116.417 28.84C115.99 28.84 115.61 28.94 115.277 29.14C114.957 29.3267 114.697 29.5933 114.497 29.94C114.31 30.2867 114.217 30.6867 114.217 31.14C114.217 31.58 114.31 31.9733 114.497 32.32C114.683 32.6667 114.943 32.94 115.277 33.14C115.61 33.34 115.983 33.44 116.397 33.44ZM118.457 36V33.38L118.917 31.02L118.457 28.66V26.28H121.457V36H118.457ZM130.031 36V30.46C130.031 29.9533 129.871 29.5467 129.551 29.24C129.245 28.92 128.851 28.76 128.371 28.76C128.038 28.76 127.745 28.8333 127.491 28.98C127.238 29.1133 127.038 29.3133 126.891 29.58C126.745 29.8333 126.671 30.1267 126.671 30.46L125.491 29.88C125.491 29.12 125.658 28.4533 125.991 27.88C126.325 27.3067 126.785 26.8667 127.371 26.56C127.971 26.24 128.645 26.08 129.391 26.08C130.111 26.08 130.745 26.2533 131.291 26.6C131.851 26.9333 132.291 27.38 132.611 27.94C132.931 28.5 133.091 29.1133 133.091 29.78V36H130.031ZM123.611 36V26.28H126.671V36H123.611ZM139.757 36.22C138.757 36.22 137.85 36 137.037 35.56C136.223 35.12 135.583 34.5133 135.117 33.74C134.65 32.9667 134.417 32.1 134.417 31.14C134.417 30.1667 134.65 29.3 135.117 28.54C135.597 27.7667 136.243 27.16 137.057 26.72C137.87 26.28 138.783 26.06 139.797 26.06C140.557 26.06 141.25 26.1933 141.877 26.46C142.517 26.7133 143.083 27.1 143.577 27.62L141.617 29.58C141.39 29.3267 141.123 29.14 140.817 29.02C140.523 28.9 140.183 28.84 139.797 28.84C139.357 28.84 138.963 28.94 138.617 29.14C138.283 29.3267 138.017 29.5933 137.817 29.94C137.63 30.2733 137.537 30.6667 137.537 31.12C137.537 31.5733 137.63 31.9733 137.817 32.32C138.017 32.6667 138.29 32.94 138.637 33.14C138.983 33.34 139.37 33.44 139.797 33.44C140.197 33.44 140.55 33.3733 140.857 33.24C141.177 33.0933 141.45 32.8933 141.677 32.64L143.617 34.6C143.11 35.1333 142.537 35.54 141.897 35.82C141.257 36.0867 140.543 36.22 139.757 36.22ZM151.398 36V30.46C151.398 29.9533 151.238 29.5467 150.918 29.24C150.612 28.92 150.218 28.76 149.738 28.76C149.405 28.76 149.112 28.8333 148.858 28.98C148.605 29.1133 148.405 29.3133 148.258 29.58C148.112 29.8333 148.038 30.1267 148.038 30.46L146.858 29.88C146.858 29.12 147.018 28.4533 147.338 27.88C147.658 27.3067 148.105 26.8667 148.678 26.56C149.252 26.24 149.912 26.08 150.658 26.08C151.418 26.08 152.085 26.24 152.658 26.56C153.232 26.8667 153.672 27.3 153.978 27.86C154.298 28.4067 154.458 29.0467 154.458 29.78V36H151.398ZM144.978 36V21.48H148.038V36H144.978ZM160.484 36.2C159.59 36.2 158.79 35.98 158.084 35.54C157.39 35.1 156.837 34.5 156.424 33.74C156.024 32.98 155.824 32.1133 155.824 31.14C155.824 30.1667 156.024 29.3 156.424 28.54C156.837 27.78 157.39 27.18 158.084 26.74C158.79 26.3 159.59 26.08 160.484 26.08C161.137 26.08 161.724 26.2067 162.244 26.46C162.777 26.7133 163.21 27.0667 163.544 27.52C163.877 27.96 164.064 28.4667 164.104 29.04V33.24C164.064 33.8133 163.877 34.3267 163.544 34.78C163.224 35.22 162.797 35.5667 162.264 35.82C161.73 36.0733 161.137 36.2 160.484 36.2ZM161.104 33.44C161.757 33.44 162.284 33.2267 162.684 32.8C163.084 32.36 163.284 31.8067 163.284 31.14C163.284 30.6867 163.19 30.2867 163.004 29.94C162.83 29.5933 162.577 29.3267 162.244 29.14C161.924 28.94 161.55 28.84 161.124 28.84C160.697 28.84 160.317 28.94 159.984 29.14C159.664 29.3267 159.404 29.5933 159.204 29.94C159.017 30.2867 158.924 30.6867 158.924 31.14C158.924 31.58 159.017 31.9733 159.204 32.32C159.39 32.6667 159.65 32.94 159.984 33.14C160.317 33.34 160.69 33.44 161.104 33.44ZM163.164 36V33.38L163.624 31.02L163.164 28.66V26.28H166.164V36H163.164ZM174.738 36V30.46C174.738 29.9533 174.578 29.5467 174.258 29.24C173.952 28.92 173.558 28.76 173.078 28.76C172.745 28.76 172.452 28.8333 172.198 28.98C171.945 29.1133 171.745 29.3133 171.598 29.58C171.452 29.8333 171.378 30.1267 171.378 30.46L170.198 29.88C170.198 29.12 170.365 28.4533 170.698 27.88C171.032 27.3067 171.492 26.8667 172.078 26.56C172.678 26.24 173.352 26.08 174.098 26.08C174.818 26.08 175.452 26.2533 175.998 26.6C176.558 26.9333 176.998 27.38 177.318 27.94C177.638 28.5 177.798 29.1133 177.798 29.78V36H174.738ZM168.318 36V26.28H171.378V36H168.318ZM183.884 40.36C182.817 40.36 181.877 40.1733 181.064 39.8C180.264 39.44 179.63 38.9267 179.164 38.26L181.044 36.38C181.39 36.7933 181.777 37.1067 182.204 37.32C182.644 37.5333 183.17 37.64 183.784 37.64C184.544 37.64 185.137 37.4533 185.564 37.08C186.004 36.7067 186.224 36.18 186.224 35.5V33.02L186.744 30.9L186.284 28.78V26.28H189.284V35.42C189.284 36.42 189.05 37.2867 188.584 38.02C188.117 38.7533 187.477 39.3267 186.664 39.74C185.85 40.1533 184.924 40.36 183.884 40.36ZM183.744 35.7C182.85 35.7 182.057 35.4867 181.364 35.06C180.67 34.6333 180.124 34.0533 179.724 33.32C179.324 32.5867 179.124 31.7733 179.124 30.88C179.124 29.9733 179.324 29.16 179.724 28.44C180.124 27.7067 180.67 27.1333 181.364 26.72C182.057 26.2933 182.85 26.08 183.744 26.08C184.41 26.08 185.004 26.2067 185.524 26.46C186.057 26.7 186.484 27.0467 186.804 27.5C187.137 27.94 187.324 28.4533 187.364 29.04V32.74C187.324 33.3133 187.137 33.8267 186.804 34.28C186.484 34.72 186.057 35.0667 185.524 35.32C184.99 35.5733 184.397 35.7 183.744 35.7ZM184.324 32.98C184.75 32.98 185.117 32.8867 185.424 32.7C185.744 32.5133 185.984 32.2667 186.144 31.96C186.317 31.64 186.404 31.28 186.404 30.88C186.404 30.48 186.317 30.12 186.144 29.8C185.984 29.48 185.744 29.2267 185.424 29.04C185.117 28.8533 184.75 28.76 184.324 28.76C183.91 28.76 183.544 28.8533 183.224 29.04C182.904 29.2267 182.657 29.48 182.484 29.8C182.31 30.12 182.224 30.48 182.224 30.88C182.224 31.2533 182.31 31.6067 182.484 31.94C182.657 32.26 182.897 32.5133 183.204 32.7C183.524 32.8867 183.897 32.98 184.324 32.98Z" fill="white"/>
<defs>
<linearGradient id="paint0_linear_983_46" x1="29" y1="0" x2="29" y2="58" gradientUnits="userSpaceOnUse">
<stop stop-color="white" stop-opacity="0"/>
<stop offset="0.0001" stop-color="white" stop-opacity="0"/>
<stop offset="1" stop-color="#011322" stop-opacity="0.56"/>
</linearGradient>
<linearGradient id="paint1_linear_983_46" x1="4.97143" y1="-1.61535e-05" x2="61.5832" y2="3.73838" gradientUnits="userSpaceOnUse">
<stop stop-color="white" stop-opacity="0.21"/>
<stop offset="1" stop-color="white" stop-opacity="0"/>
</linearGradient>
</defs>
</svg>
