<svg width="267" height="89" viewBox="0 0 267 89" fill="none" xmlns="http://www.w3.org/2000/svg">
<path fill-rule="evenodd" clip-rule="evenodd" d="M43.1828 34.888C40.6061 36.2195 38.5032 38.3137 37.1611 40.8849C35.817 43.4504 34.7564 46.1548 33.998 48.95C33.8247 49.573 33.6693 50.196 33.5316 50.819C33.394 51.442 33.2528 52.065 33.108 52.688C32.8303 53.9685 32.5793 55.0673 32.3551 55.9846C32.1308 56.9019 31.9148 57.6893 31.7071 58.3467C31.4553 59.266 30.9731 60.1059 30.3063 60.787C29.7325 61.1953 29.0372 61.3968 28.334 61.3584C27.8487 61.3584 27.374 61.3495 26.91 61.3317C26.4461 61.3139 25.9714 61.2878 25.486 61.2534C25.0007 61.219 24.526 61.1929 24.062 61.1751C23.5981 61.1573 23.1234 61.1484 22.638 61.1484C20.5192 61.1001 18.402 61.3003 16.3297 61.7447C14.7681 62.1165 13.3035 62.8161 12.0328 63.797C12.759 63.797 13.471 63.8059 14.1688 63.8237C14.8666 63.8415 15.5786 63.8676 16.3048 63.902H17.3817C18.2812 63.9365 19.1813 63.9537 20.082 63.9537H22.784C28.1133 63.9537 31.6437 62.3617 33.375 59.1779C35.1784 55.797 36.5537 52.2046 37.469 48.4837C37.5018 48.3167 37.5452 48.152 37.5989 47.9906C37.6506 47.8358 37.6933 47.688 37.7289 47.5492C38.0054 46.4076 38.308 45.2743 38.6367 44.1494C38.9654 43.0244 39.3374 41.9428 39.7527 40.9044C40.2276 39.8454 40.7624 38.8143 41.3547 37.8161C41.9481 36.83 42.5539 35.835 43.1721 34.8311V34.888H43.1828ZM20.0286 54.6069C20.1662 54.226 20.27 53.8973 20.3401 53.6208C20.4087 53.347 20.461 53.0695 20.4967 52.7895C20.4962 52.6509 20.5045 52.5123 20.5216 52.3748C20.539 52.2372 20.5479 52.0987 20.5483 51.96C20.5522 50.9844 20.3673 50.0173 20.0036 49.112C19.6459 48.2249 19.2388 47.3585 18.7843 46.5168C18.5067 45.997 18.2474 45.4951 18.0065 45.0109C17.7694 44.5393 17.5613 44.0536 17.3835 43.5566C17.2784 43.2415 17.1916 42.9206 17.1236 42.5954C17.0557 42.2795 17.0211 41.9574 17.0204 41.6342C17.0303 41.1388 17.152 40.6521 17.3764 40.2102C17.6534 39.6565 18.0023 39.1418 18.4141 38.6794C19.1239 37.9114 19.916 37.2237 20.7762 36.6289C21.7842 35.9218 22.8528 35.3053 23.9695 34.7866C26.8549 33.4689 29.8876 32.5015 33.003 31.9048C36.4245 31.2485 39.9018 30.9266 43.3857 30.9436C45.134 30.9057 46.8797 31.0978 48.578 31.5149C49.8405 31.8329 51.0129 32.4371 52.0045 33.2807C52.9687 34.1544 53.7856 35.178 54.4235 36.312C55.1191 37.5079 55.6519 38.7914 56.0077 40.1284C56.1454 40.6825 56.2575 41.2278 56.3441 41.7642C56.4295 42.288 56.4729 42.8177 56.4741 43.3484C56.4682 44.2443 56.2703 45.1285 55.8935 45.9413C55.5167 46.7541 54.9699 47.4766 54.29 48.06C52.9625 49.3416 51.3118 50.2386 49.5143 50.6553C49.2326 50.7256 48.9466 50.7773 48.6581 50.8101C48.3739 50.8442 48.0881 50.8614 47.8019 50.8618C47.3153 50.8622 46.8293 50.8277 46.3476 50.7585C45.8623 50.6897 45.3775 50.6031 44.8934 50.4986C44.3736 50.3954 43.8717 50.3088 43.3875 50.2388C42.9058 50.1701 42.4198 50.1356 41.9332 50.1355C40.5904 50.1159 39.2779 50.5353 38.1952 51.3299C38.7708 51.6362 39.3695 51.8969 39.9859 52.1095C40.5697 52.3114 41.1685 52.4674 41.7766 52.5759C42.2608 52.6791 42.7283 52.7569 43.1792 52.8091C43.6271 52.8611 44.0776 52.8872 44.5285 52.8874C48.1927 52.9746 51.7603 51.707 54.5481 49.3274C55.8449 48.3024 56.8923 46.9967 57.6116 45.5085C58.3309 44.0203 58.7033 42.3883 58.7008 40.7353C58.7143 39.1846 58.4416 37.6446 57.8963 36.1928C57.3896 34.8396 56.6008 33.6097 55.5823 32.5847C54.4395 31.4419 53.0089 30.6294 51.442 30.2333C49.2497 29.7103 46.9987 29.4746 44.7456 29.532H43.8556C39.396 29.5937 34.9604 30.1968 30.6463 31.328C26.7636 32.2893 23.0446 33.8201 19.6103 35.8706C18.8912 36.3251 18.1977 36.8189 17.533 37.3498C16.96 37.8022 16.4377 38.3155 15.9755 38.8806C15.4961 39.4099 15.094 40.0044 14.7811 40.6463C14.5173 41.1798 14.3756 41.7654 14.3664 42.3605C14.4102 43.3405 14.6486 44.302 15.0677 45.1889C15.5352 46.2794 16.0805 47.3955 16.7035 48.5371C16.8079 48.7447 16.9266 48.9613 17.0595 49.1868C17.1947 49.4118 17.3137 49.6462 17.4155 49.8881C17.9353 50.7532 18.4283 51.6011 18.8947 52.4317C19.3611 53.2624 19.7331 53.9744 20.0108 54.5677V54.6193L20.0286 54.6069ZM65.2406 49.6229L62.0223 49.6745C61.8835 50.3295 61.7102 50.9935 61.5026 51.6663C61.2949 52.3392 61.0872 53.0203 60.8796 53.7098C60.7763 53.9851 60.6814 54.261 60.5948 54.5375C60.5081 54.814 60.4304 55.0899 60.3616 55.3652C60.0902 56.206 59.865 57.0611 59.687 57.9266C59.5175 58.7345 59.4304 59.5575 59.4271 60.383C59.367 61.3449 59.6865 62.292 60.3171 63.0209C60.6439 63.3423 61.0347 63.5912 61.464 63.7516C61.8934 63.912 62.3516 63.9802 62.8091 63.9519C63.565 63.9677 64.3185 63.8625 65.0412 63.6404C65.7317 63.3892 66.354 62.9802 66.8586 62.446C67.1261 62.1756 67.3775 61.8897 67.6115 61.5898C67.8714 61.2611 68.1396 60.9051 68.4161 60.5218C67.6916 60.9924 66.8788 61.3104 66.0273 61.4563C65.1867 61.5959 64.3359 61.6655 63.4837 61.6646H62.834C62.6164 61.6655 62.3991 61.6482 62.1843 61.613H60.8867C61.4219 60.7886 61.8575 59.9037 62.1843 58.9768C62.4952 58.0809 62.7723 57.1849 63.0156 56.289C63.0494 56.111 63.0939 55.933 63.1455 55.755C63.1971 55.577 63.2398 55.3847 63.2754 55.2121C63.5128 54.2473 63.7726 53.298 64.0551 52.3641C64.3436 51.4064 64.7445 50.4863 65.2495 49.6229H65.2406ZM67.9408 42.0953C67.9509 41.929 67.918 41.7629 67.8454 41.613C67.7727 41.463 67.6628 41.3343 67.5261 41.2391C67.2624 41.0536 66.9564 40.9374 66.6361 40.9009H66.394C65.9826 40.893 65.5781 41.0071 65.2316 41.2289C64.885 41.4506 64.6119 41.7701 64.4467 42.1469C63.944 43.344 63.7218 44.6403 63.797 45.9365C63.7799 46.1689 63.8248 46.4017 63.9269 46.6111C63.9667 46.6781 64.0241 46.7329 64.0928 46.7696C64.1615 46.8063 64.2389 46.8235 64.3167 46.8194C64.5983 46.7824 64.8565 46.6437 65.043 46.4296C65.3603 46.1296 65.6576 45.8091 65.933 45.4701C66.0706 45.2969 66.2006 45.1236 66.3228 44.9504C66.445 44.7771 66.5578 44.6039 66.661 44.4306C67.0063 43.9121 67.3095 43.419 67.5706 42.9514C67.7547 42.6751 67.8868 42.3674 67.9604 42.0436V42.0953H67.9408ZM85.1321 60.1106C84.82 60.2839 84.5085 60.4399 84.1976 60.5788L83.2631 60.9935C82.6726 61.2363 82.0652 61.4356 81.4457 61.5898C80.7654 61.752 80.0678 61.8303 79.3684 61.823H78.9021C78.6764 61.8194 78.4511 61.8021 78.2274 61.7714C78.8498 61.3218 79.3712 60.747 79.7582 60.0839C80.1459 59.435 80.4181 58.7237 80.5628 57.9818C80.5619 57.8259 80.5708 57.6701 80.5895 57.5154C80.6069 57.3778 80.6158 57.2393 80.6162 57.1007C80.6268 56.5202 80.4837 55.9473 80.2015 55.4399C79.9297 54.9639 79.6171 54.5124 79.267 54.0907C79.0937 53.8534 78.9121 53.6196 78.7223 53.3894C78.5498 53.1912 78.4016 52.973 78.2808 52.7397C78.1768 52.5669 78.0897 52.3845 78.021 52.195C77.9546 52.021 77.9197 51.8365 77.9177 51.6503C77.9029 51.4934 77.9314 51.3354 78.0001 51.1935C78.0688 51.0516 78.1752 50.9314 78.3075 50.8457C78.598 50.6748 78.9015 50.5272 79.2153 50.4043H79.267C79.5435 50.2666 79.8116 50.1195 80.0715 49.9629C80.195 49.8935 80.2969 49.7912 80.3657 49.6674C80.4345 49.5436 80.4676 49.4031 80.4613 49.2615C80.4609 49.1249 80.4247 48.9907 80.3563 48.8723C80.2879 48.754 80.1897 48.6556 80.0715 48.5869C79.7489 48.397 79.3773 48.3066 79.0035 48.327C78.4922 48.3625 78.0036 48.5524 77.6027 48.8717C77.0294 49.2836 76.5066 49.7615 76.0452 50.2957C75.6589 50.7176 75.2952 51.1596 74.9558 51.62C74.6093 52.0876 74.2634 52.5462 73.9181 52.996C73.3983 53.7922 72.9135 54.5636 72.4638 55.31C72.014 56.0564 71.6681 56.6361 71.4261 57.049C71.9786 56.8562 72.4831 56.5466 72.9052 56.1412C73.3728 55.7093 73.8142 55.2679 74.2296 54.8169C74.4604 54.588 74.6773 54.3454 74.8793 54.0907C75.0643 53.8541 75.2635 53.6288 75.4756 53.4161C75.6684 53.8394 75.8939 54.2471 76.1502 54.6354C76.3774 54.9809 76.6386 55.3029 76.9298 55.5966C77.1315 55.8674 77.3573 56.1194 77.6044 56.3495C77.8252 56.5531 78.0333 56.77 78.2274 56.9992C78.4319 57.2369 78.6064 57.4987 78.7472 57.7788C78.8859 58.0549 78.9572 58.3599 78.9555 58.6688C79.0126 59.1589 78.9158 59.6545 78.6785 60.087C78.4412 60.5195 78.0751 60.8674 77.6311 61.0825C76.7038 61.4918 75.7099 61.7294 74.6977 61.7838C74.3026 61.8532 73.8984 61.8532 73.5033 61.7838H71.6343L70.6482 63.9519H76.5667C77.9404 63.9878 79.3138 63.8684 80.6607 63.5959C81.7013 63.3336 82.652 62.7955 83.4126 62.0384C83.711 61.7745 83.9889 61.4883 84.2438 61.1822C84.5203 60.8535 84.817 60.4815 85.1338 60.0661L85.1321 60.1106ZM98.7348 49.5713L92.6597 49.4164C93.0745 47.21 93.6033 45.0266 94.2439 42.8749C94.6414 41.6989 94.979 40.7122 95.2567 39.9148C95.3255 39.7071 95.3849 39.4994 95.4347 39.2918C95.4863 39.0835 95.5468 38.8592 95.6127 38.6171C95.6424 38.5594 95.6685 38.5 95.691 38.4391C95.7065 38.3974 95.7155 38.3536 95.7177 38.3092C95.7178 38.2761 95.708 38.2437 95.6896 38.2161C95.6712 38.1885 95.6451 38.167 95.6145 38.1543C95.5156 38.1147 95.4093 38.0971 95.303 38.1027C94.7618 38.2078 94.2599 38.4594 93.8519 38.8301C93.4438 39.2007 93.1454 39.6763 92.989 40.2049C92.2452 41.6877 91.6116 43.2232 91.0933 44.7991C90.8156 45.6642 90.5563 46.4948 90.3154 47.2911C90.0745 48.0873 89.8496 48.7798 89.6408 49.3683H87.576L87.22 51.0291L89.2332 51.086C88.9555 52.0556 88.7217 52.9456 88.5319 53.756C88.342 54.5665 88.1604 55.3539 87.9872 56.1181C87.9534 56.1844 87.9271 56.2542 87.9089 56.3264C87.8911 56.3944 87.8822 56.4643 87.8822 56.5346C87.6448 57.5385 87.3855 58.5597 87.1043 59.598C86.8231 60.6363 86.4421 61.8129 85.9615 63.1277L85.7017 63.959H91.7234C92.5535 63.9941 93.3803 63.8338 94.1371 63.4909C94.7609 63.1658 95.3303 62.7454 95.8245 62.2449C96.101 61.9684 96.3781 61.6717 96.6558 61.3549C96.9335 61.038 97.245 60.6921 97.5903 60.3171V60.059C96.9184 60.4198 96.2147 60.7177 95.4881 60.949C94.8337 61.1522 94.1657 61.3086 93.4892 61.4172C92.99 61.4881 92.4872 61.5315 91.9833 61.5471C91.4635 61.5649 90.9295 61.5566 90.3813 61.5222L88.0459 61.5738C89.0396 59.9676 89.8828 58.2729 90.5646 56.5115C91.2497 54.7305 91.7966 52.8994 92.2004 51.0344L98.4304 51.1377L98.7348 49.5713ZM119.972 60.52C119.735 60.6589 119.501 60.7888 119.271 60.9099C119.063 61.0234 118.847 61.1187 118.623 61.1947C118.061 61.3963 117.477 61.5272 116.884 61.5845C116.288 61.6372 115.69 61.6461 115.093 61.6112L113.795 61.6628C113.969 61.2475 114.15 60.8232 114.34 60.3901C114.53 59.957 114.711 59.5155 114.885 59.0658C115.092 58.616 115.283 58.1663 115.456 57.7165L115.976 56.3673C116.214 55.7245 116.405 55.0654 116.547 54.3951C116.683 53.7638 116.753 53.1201 116.756 52.4744C116.788 51.9994 116.703 51.5238 116.508 51.0893C116.314 50.6548 116.015 50.2748 115.639 49.9824C114.656 49.3633 113.502 49.0722 112.343 49.1512C112.005 49.1509 111.667 49.1681 111.33 49.2028C110.987 49.2406 110.648 49.3103 110.317 49.4111C107.792 50.0448 105.508 51.4065 103.749 53.3271C101.901 55.0946 100.734 57.4565 100.453 59.9985V60.5699C100.409 61.0613 100.48 61.5562 100.66 62.0155C100.84 62.4748 101.124 62.886 101.49 63.2167C102.826 63.9807 104.396 64.2301 105.903 63.9181C106.302 63.8246 106.687 63.676 107.046 63.4766C107.707 63.1432 108.339 62.7556 108.936 62.3178C109.576 61.8503 110.242 61.3572 110.935 60.8387L111.35 60.52L111.764 60.2085C111.733 61.1722 111.996 62.1226 112.517 62.9337C112.806 63.3203 113.189 63.626 113.631 63.8215C114.072 64.017 114.556 64.0956 115.036 64.0498C115.357 64.051 115.678 64.0337 115.997 63.9982C116.302 63.9594 116.595 63.853 116.853 63.6867C117.377 63.4225 117.844 63.0599 118.229 62.6187C118.847 61.9321 119.427 61.2132 119.968 60.4649V60.52H119.972ZM114.365 51.9013C114.353 52.437 114.275 52.9691 114.132 53.4855C113.97 54.1108 113.77 54.726 113.536 55.3278C113.254 56.0295 112.915 56.707 112.523 57.3534C112.164 57.9565 111.756 58.5292 111.303 59.0658C111.096 59.3031 110.888 59.5369 110.68 59.7671C110.486 59.9794 110.278 60.1785 110.057 60.3634C109.511 60.826 108.874 61.1707 108.188 61.3762C107.375 61.5854 106.536 61.6812 105.696 61.661C104.985 61.7315 104.272 61.5576 103.673 61.168C103.456 60.9271 103.293 60.6428 103.194 60.3341C103.096 60.0254 103.064 59.6992 103.101 59.3773C103.09 58.1547 103.331 56.9428 103.808 55.8174C104.286 54.6919 104.991 53.6769 105.878 52.8358C106.729 51.9554 107.75 51.2574 108.879 50.7843C110.008 50.3112 111.222 50.0729 112.446 50.0839C112.964 50.0493 113.474 50.2172 113.87 50.552C114.039 50.7216 114.17 50.9248 114.255 51.1484C114.34 51.3719 114.377 51.6109 114.363 51.8497L114.365 51.9013ZM183.984 46.1376C183.603 46.178 183.223 46.2272 182.843 46.2854C182.464 46.3435 182.083 46.3928 181.701 46.4331C181.32 46.4735 180.939 46.5031 180.558 46.5221C180.177 46.5411 179.797 46.5506 179.417 46.5506H178.171C177.893 46.5162 177.608 46.4901 177.315 46.4723C177.022 46.4545 176.666 46.4456 176.247 46.4456C176.35 45.5781 176.462 44.7107 176.583 43.8432C176.704 42.9758 176.817 42.1089 176.921 41.2426C177.371 38.1573 177.977 35.0785 178.739 32.0062C179.497 28.9459 180.575 25.9741 181.957 23.14C181.991 23.0368 182.035 22.9158 182.087 22.784C182.146 22.6151 182.19 22.4412 182.217 22.2643C180.122 24.5467 178.459 27.1908 177.309 30.0678C176.122 32.9943 175.21 36.0251 174.584 39.1209C174.306 40.3704 174.073 41.6105 173.883 42.8411C173.693 44.0717 173.529 45.2773 173.39 46.458C171.797 46.2931 170.195 46.1999 168.584 46.1786C166.972 46.1572 165.354 46.1465 163.73 46.1465C164.041 44.9005 164.292 43.7845 164.483 42.7984C164.668 41.8461 164.798 40.8839 164.872 39.9165C164.941 39.2591 164.994 38.6017 165.029 37.9443C165.065 37.2869 165.082 36.5749 165.081 35.8083C165.081 35.0809 165.064 34.3802 165.029 33.7061C164.995 33.0321 164.943 32.383 164.872 31.7588C164.802 30.9625 164.708 30.1663 164.588 29.37C164.468 28.5738 164.305 27.7105 164.098 26.7801L160.88 29.3238C161.156 30.2933 161.399 31.2426 161.606 32.1718C161.814 33.1009 161.987 34.0182 162.126 34.9236C162.299 35.962 162.418 36.9914 162.482 38.0119C162.546 39.0325 162.58 40.0969 162.585 41.2053V42.1914C162.551 42.71 162.499 43.2552 162.43 43.8272C162.362 44.3992 162.275 45.1705 162.17 46.1412C160.544 46.2112 158.865 46.3151 157.135 46.4527C155.405 46.5904 153.674 46.7986 151.943 47.0775C148.875 47.5609 145.853 48.3016 142.909 49.2918C140.069 50.2275 137.403 51.6258 135.018 53.4303C133.79 54.3185 132.697 55.3797 131.773 56.5809C131.127 57.3536 130.737 58.3086 130.657 59.3132C130.648 60.0303 130.844 60.735 131.223 61.3441C131.601 61.9532 132.146 62.4412 132.793 62.7504C134.687 63.6507 136.775 64.0625 138.868 63.9483C144.124 64.0771 149.331 62.9094 154.029 60.5485C158.32 58.282 161.365 54.188 163.165 48.2665C164.827 48.3365 166.488 48.4143 168.149 48.4997C169.811 48.5851 171.472 48.6801 173.133 48.7845C173.063 49.754 172.977 50.844 172.874 52.0544C172.77 53.2648 172.632 54.5108 172.459 55.7924C172.251 57.2164 172.009 58.6095 171.733 59.9718C171.494 61.1974 171.165 62.4035 170.746 63.5799C170.711 63.7187 170.677 63.8575 170.643 63.9946C170.609 64.1302 170.592 64.2695 170.592 64.4093C170.586 64.4904 170.604 64.5714 170.643 64.6425C170.66 64.668 170.684 64.6886 170.711 64.7023C170.739 64.716 170.769 64.7224 170.8 64.7208C171.037 64.659 171.258 64.5455 171.446 64.3886C171.634 64.2317 171.786 64.0352 171.889 63.813C172.403 63.0181 172.838 62.1744 173.187 61.2943L173.498 60.5681C173.603 60.3308 173.707 60.0715 173.81 59.7902C174.367 58.2854 174.801 56.7376 175.107 55.1622C175.529 53.0515 175.841 50.9204 176.042 48.7774C177.127 48.6885 178.203 48.5147 179.26 48.2576C180.242 48.0097 181.197 47.662 182.108 47.2199C182.419 47.0822 182.731 46.9268 183.043 46.7535C183.37 46.5704 183.682 46.3621 183.977 46.1305L183.984 46.1376ZM161.813 48.222C161.25 50.9921 159.876 53.5323 157.866 55.52C155.837 57.4727 153.331 58.8597 150.599 59.5428C149.629 59.7802 148.591 60.005 147.484 60.2174C146.377 60.4299 145.249 60.6031 144.102 60.7372C143.034 60.9105 141.961 61.0291 140.883 61.0932C139.806 61.1573 138.802 61.1917 137.872 61.1964C136.257 61.2724 134.64 61.1239 133.066 60.755C132.696 60.6847 132.362 60.4887 132.121 60.2003C131.88 59.9118 131.745 59.5487 131.741 59.1726C131.79 58.5515 132.016 57.9574 132.391 57.4602C132.895 56.7238 133.497 56.0602 134.182 55.488L134.415 55.2548C134.502 55.1681 134.598 55.09 134.7 55.0216C137.133 53.1289 139.885 51.6869 142.825 50.7639C145.86 49.7941 148.98 49.1164 152.144 48.74C153.771 48.5323 155.406 48.3941 157.049 48.3253C158.693 48.2564 160.277 48.2042 161.8 48.1686V48.2202L161.813 48.222ZM200.024 53.918C200.068 53.2242 199.955 52.5293 199.695 51.8848C199.434 51.2402 199.032 50.6625 198.518 50.1943C197.284 49.2576 195.754 48.7981 194.209 48.9002C192.968 48.9194 191.745 49.1908 190.612 49.6979C189.48 50.205 188.463 50.9371 187.623 51.8497C185.77 53.5982 184.501 55.8747 183.988 58.3698C183.954 58.6457 183.918 58.9305 183.885 59.2224C183.85 59.5053 183.833 59.7901 183.833 60.075C183.811 60.6753 183.939 61.2716 184.207 61.8095C184.474 62.3474 184.872 62.8098 185.364 63.1544C186.604 63.9579 188.068 64.3474 189.543 64.2669C189.785 64.2669 190.027 64.258 190.271 64.2402C190.515 64.2224 190.755 64.1957 190.998 64.1619C191.617 64.0927 192.232 63.9887 192.84 63.8504C193.369 63.7381 193.884 63.5636 194.372 63.3307C195.771 62.6005 196.967 61.5337 197.851 60.2263C198.823 58.8849 199.495 57.3503 199.823 55.7265C199.894 55.4372 199.947 55.1434 199.979 54.8472C200.014 54.5208 200.032 54.1928 200.031 53.8646V53.9162L200.024 53.918ZM197.375 56.2979C197.434 57.9371 196.921 59.5458 195.923 60.8476C194.673 61.5982 193.255 62.0225 191.799 62.0812C190.342 62.14 188.895 61.8315 187.589 61.184C187.181 60.7281 186.875 60.1909 186.691 59.6078C186.507 59.0247 186.449 58.4092 186.521 57.802C186.521 57.4901 186.546 57.1787 186.597 56.871C186.648 56.5613 186.708 56.251 186.775 55.9401C187.22 54.409 188.041 53.0137 189.164 51.8817C189.673 51.3094 190.296 50.8503 190.994 50.5341C191.692 50.218 192.448 50.0519 193.214 50.0465C193.749 50.0168 194.283 50.1247 194.765 50.36C195.246 50.5953 195.66 50.95 195.966 51.3904C196.581 52.2696 196.989 53.2768 197.16 54.3363C197.228 54.6816 197.281 55.0163 197.315 55.3456C197.347 55.6459 197.365 55.9477 197.366 56.2498V56.3014L197.375 56.2979ZM217.208 49.6798L215.339 49.7315C215.306 49.8599 215.28 49.9901 215.261 50.1213C215.243 50.2505 215.235 50.3807 215.236 50.5111C215.167 51.1341 215.089 51.8093 215.001 52.5367C214.911 53.2871 214.782 54.0322 214.613 54.7689C214.275 56.5118 213.596 58.1707 212.614 59.6496C212.06 60.4154 211.317 61.0239 210.457 61.4152C209.596 61.8066 208.649 61.9674 207.708 61.8817C207.452 61.9296 207.189 61.9143 206.94 61.8373C206.691 61.7603 206.465 61.6238 206.281 61.4398C206.097 61.2557 205.961 61.0296 205.884 60.7809C205.807 60.5323 205.791 60.2686 205.839 60.0127C205.839 59.3551 205.926 58.7003 206.097 58.0654C206.275 57.4246 206.453 56.7927 206.669 56.1697C206.702 56.1032 206.728 56.0334 206.747 55.9615C206.765 55.8894 206.792 55.8195 206.825 55.7532C206.997 55.2002 207.153 54.6466 207.292 54.0925C207.431 53.5318 207.501 52.9561 207.5 52.3783C207.499 52.0994 207.473 51.8211 207.422 51.5471C207.368 51.2638 207.29 50.9857 207.188 50.7158C206.998 50.1305 206.718 49.5785 206.357 49.08C205.96 48.5255 205.508 48.0126 205.008 47.5492C205.043 47.6945 205.069 47.842 205.086 47.9906C205.102 48.1394 205.127 48.2868 205.163 48.4321C205.268 48.8824 205.353 49.3327 205.423 49.7813C205.492 50.2277 205.527 50.6788 205.528 51.1305C205.532 51.8809 205.412 52.6268 205.172 53.3377C204.934 54.0365 204.657 54.7211 204.342 55.3883C204.03 56.0813 203.753 56.782 203.511 57.4905C203.271 58.2015 203.151 58.9473 203.155 59.6977C203.132 60.8828 203.559 62.0327 204.349 62.9159C204.695 63.3375 205.129 63.6772 205.622 63.9106C206.114 64.1439 206.652 64.265 207.197 64.2652C208.091 64.2335 208.956 63.9449 209.689 63.4339C210.819 62.6457 211.848 61.7215 212.753 60.682C212.787 60.7853 212.82 60.8814 212.856 60.9668C212.897 61.0674 212.95 61.163 213.013 61.2516C213.29 61.9527 213.657 62.6154 214.102 63.2239C214.356 63.5189 214.678 63.7484 215.039 63.893C215.401 64.0377 215.792 64.0933 216.179 64.0551C216.828 64.0655 217.472 63.9444 218.073 63.6991C218.725 63.3967 219.301 62.9535 219.761 62.4015C220.038 62.0894 220.324 61.7334 220.617 61.3335C220.928 60.9091 221.215 60.4669 221.475 60.0092C220.572 60.7597 219.489 61.261 218.333 61.4634C217.173 61.6421 216.001 61.729 214.828 61.7233C215.316 60.8868 215.75 60.02 216.128 59.1281C216.466 58.3194 216.743 57.4864 216.957 56.6361C217.131 55.9708 217.262 55.2947 217.347 54.6122C217.434 53.9036 217.477 53.1902 217.477 52.4762C217.477 52.2389 217.468 52.0051 217.45 51.7749C217.432 51.5506 217.407 51.3157 217.374 51.0736C217.376 51.0455 217.372 51.0173 217.363 50.9907C217.354 50.9641 217.339 50.9396 217.32 50.9187C217.321 50.7182 217.303 50.5181 217.269 50.3206C217.232 50.1066 217.215 49.8898 217.217 49.6727L217.208 49.6798ZM238.235 60.1106C237.923 60.2839 237.612 60.4399 237.301 60.5788L236.366 60.9935C235.776 61.2362 235.168 61.4355 234.549 61.5898C233.868 61.752 233.171 61.8303 232.472 61.823H232.005C231.779 61.8194 231.553 61.8022 231.329 61.7714C231.952 61.3217 232.474 60.747 232.861 60.0839C233.249 59.4348 233.521 58.7236 233.666 57.9818C233.664 57.8259 233.673 57.6702 233.691 57.5154C233.709 57.3779 233.718 57.2393 233.718 57.1007C233.728 56.5202 233.585 55.9474 233.303 55.4399C233.031 54.964 232.718 54.5126 232.368 54.0907C232.194 53.8534 232.012 53.6196 231.822 53.3894C231.65 53.1912 231.502 52.9731 231.382 52.7397C231.277 52.5675 231.19 52.385 231.122 52.195C231.056 52.021 231.02 51.8366 231.017 51.6503C231.001 51.4938 231.029 51.3359 231.096 51.1937C231.164 51.0516 231.269 50.9306 231.4 50.844C231.691 50.6729 231.995 50.5253 232.31 50.4025H232.361C232.636 50.2649 232.905 50.1177 233.166 49.9611C233.289 49.8917 233.391 49.7894 233.46 49.6656C233.529 49.5418 233.562 49.4013 233.556 49.2598C233.555 49.126 233.52 48.9945 233.455 48.878C233.389 48.7614 233.294 48.6637 233.18 48.594C232.857 48.4043 232.486 48.3139 232.112 48.3342C231.6 48.3696 231.111 48.5595 230.709 48.8788C230.136 49.2911 229.614 49.7691 229.152 50.3028C228.766 50.7247 228.402 51.1668 228.062 51.6272C227.716 52.0947 227.37 52.5534 227.025 53.0031C226.505 53.7994 226.02 54.5707 225.57 55.3171C225.121 56.0635 224.775 56.6432 224.533 57.0562C225.085 56.8628 225.589 56.5532 226.012 56.1484C226.478 55.7164 226.92 55.275 227.336 54.824C227.566 54.5947 227.782 54.3522 227.984 54.0978C228.17 53.8612 228.37 53.6359 228.582 53.4232C228.774 53.847 229 54.2548 229.257 54.6425C229.484 54.988 229.744 55.31 230.035 55.6037C230.237 55.8743 230.462 56.1262 230.709 56.3566C230.93 56.5599 231.139 56.7769 231.332 57.0063C231.537 57.2439 231.711 57.5058 231.852 57.786C231.991 58.0619 232.063 58.367 232.06 58.676C232.118 59.166 232.021 59.6618 231.784 60.0943C231.546 60.5269 231.18 60.8748 230.736 61.0896C229.809 61.499 228.815 61.7366 227.803 61.791C227.407 61.8603 227.003 61.8603 226.608 61.791H224.739L223.746 63.9519H229.664C231.038 63.9879 232.412 63.8684 233.758 63.5959C234.799 63.3336 235.75 62.7955 236.51 62.0384C236.809 61.7742 237.086 61.488 237.342 61.1822C237.618 60.8529 237.913 60.4809 238.232 60.0661V60.1106H238.235ZM253.543 49.8311L247.42 49.4164H247.317C247.297 49.4152 247.277 49.41 247.259 49.4012C247.241 49.3923 247.225 49.3799 247.212 49.3648H246.957C246.455 49.3754 245.96 49.4865 245.501 49.6917C245.043 49.8968 244.63 50.1918 244.287 50.5592C243.524 51.2688 242.991 52.1907 242.756 53.206C242.755 53.3251 242.746 53.444 242.73 53.562C242.714 53.6801 242.706 53.799 242.705 53.918C242.696 54.1864 242.749 54.4532 242.86 54.6977C242.991 54.9373 243.167 55.1489 243.379 55.3207C243.575 55.5112 243.793 55.6768 244.029 55.8137C244.287 55.9692 244.589 56.1335 244.937 56.3068C244.7 56.4456 244.431 56.5928 244.132 56.7482C243.839 56.9031 243.552 57.0686 243.276 57.2413C242.454 57.6847 241.695 58.2347 241.017 58.8771C240.687 59.185 240.427 59.5593 240.252 59.9753C240.078 60.3914 239.993 60.8397 240.005 61.2908C239.954 61.7701 240.072 62.252 240.337 62.6544C240.602 63.0568 240.999 63.3549 241.459 63.498C242.481 63.8362 243.549 64.0198 244.625 64.0427H245.04C246.435 64.0584 247.831 63.999 249.22 63.8647C250.274 63.7453 251.282 63.3661 252.153 62.7611C252.678 62.4201 253.166 62.0245 253.607 61.5809C254.172 61.0106 254.706 60.4117 255.209 59.7867H255.056C254.051 60.3409 253.22 60.7651 252.564 61.0594C251.963 61.3345 251.337 61.5521 250.695 61.7091C250.352 61.7783 250.005 61.8217 249.656 61.839C249.31 61.8568 248.912 61.8657 248.461 61.8657H247.813C247.562 61.8642 247.31 61.847 247.06 61.8141H245.346C244.646 61.857 243.945 61.7414 243.296 61.4759C243.1 61.3901 242.934 61.248 242.818 61.0677C242.703 60.8875 242.644 60.677 242.648 60.4631C242.601 59.9764 242.694 59.4865 242.914 59.0502C243.135 58.6138 243.474 58.2489 243.894 57.9978C244.749 57.5215 245.68 57.1963 246.646 57.0366L247.657 56.9333L248.618 56.8301C248.755 56.7959 248.893 56.7698 249.033 56.7518C249.171 56.7344 249.31 56.7255 249.449 56.7251C249.684 56.5591 249.871 56.3353 249.994 56.0754C250.112 55.8236 250.173 55.5489 250.172 55.2708C250.204 55.1786 250.221 55.0819 250.224 54.9842V54.6994C248.757 54.7466 247.293 54.5536 245.889 54.1281C245.486 54.0769 245.11 53.8982 244.815 53.618C244.521 53.3377 244.324 52.9707 244.253 52.5706C244.27 52.1162 244.466 51.687 244.798 51.3762C245.118 51.025 245.519 50.7579 245.966 50.5983C246.048 50.5601 246.136 50.5337 246.226 50.52C246.311 50.5043 246.398 50.4954 246.486 50.4933C246.889 50.491 247.288 50.5798 247.653 50.7532C248.037 50.9384 248.41 51.1465 248.769 51.3762C248.782 51.3913 248.799 51.4037 248.817 51.4126C248.835 51.4214 248.854 51.4266 248.874 51.4278C249.227 51.6753 249.601 51.8927 249.99 52.0775C250.387 52.2676 250.821 52.365 251.261 52.3623C251.526 52.3662 251.789 52.3125 252.031 52.205C252.273 52.0974 252.489 51.9385 252.664 51.7393C253.115 51.1827 253.421 50.5227 253.554 49.8187L253.543 49.8311Z" fill="#DAE1EB"/>
</svg>
